<svg aria-hidden="true" style="position:absolute;width:0;height:0;overflow:hidden" xmlns="http://www.w3.org/2000/svg"><defs><symbol id="icon-study-program2" viewBox="0 0 55 55"><path d="m49.965 10.463-.001-.004a.494.494 0 0 0-.091-.136l-7.272-7.199a.372.372 0 0 0-.062-.049l-.014-.009a.414.414 0 0 0-.071-.036.426.426 0 0 0-.149-.03l-.008-.001H10.262a.428.428 0 0 0-.429.426v43.907c0 .028.003.055.008.083a.338.338 0 0 0 .011.034c.005.015.008.03.014.045a.372.372 0 0 0 .021.039c.006.011.012.024.019.034a.581.581 0 0 0 .049.06l.004.005 3.275 3.242c.168.166.44.166.608 0l2.973-2.941 2.972 2.941a.432.432 0 0 0 .608 0l2.971-2.941 2.973 2.941c.168.166.44.166.608 0l2.971-2.941 2.971 2.941c.168.166.44.166.607 0l2.974-2.941 2.971 2.941a.432.432 0 0 0 .608 0l2.971-2.941 2.973 2.941c.167.166.44.166.607 0l3.275-3.242.017-.02c.012-.014.025-.028.036-.044.01-.014.017-.03.025-.045.005-.01.011-.018.014-.028.009-.019.013-.039.018-.059l.007-.02a.421.421 0 0 0 .009-.087V10.624a.458.458 0 0 0-.035-.163zm-7.238-6.009 5.804 5.746h-5.804V4.454zm6.412 42.702-2.845 2.816-2.973-2.941a.432.432 0 0 0-.607 0l-2.971 2.941-2.971-2.941a.433.433 0 0 0-.608 0l-2.973 2.941-2.97-2.94v-.002a.432.432 0 0 0-.608 0h-.001l-2.97 2.941-2.973-2.941a.433.433 0 0 0-.608 0l-2.971 2.941-2.972-2.941a.433.433 0 0 0-.608 0l-2.973 2.941-2.845-2.816V3.85h31.175v6.774c0 .235.193.426.43.426h6.841v36.106z"/><path d="M13.897 7.877h14.077c.237 0 .43-.191.43-.426s-.193-.426-.43-.426H13.897c-.238 0-.43.191-.43.426s.192.426.43.426zM13.897 10.508h22.574c.237 0 .43-.191.43-.426s-.193-.426-.43-.426H13.897c-.238 0-.43.191-.43.426s.192.426.43.426zM13.467 12.87v13.779c0 .235.192.426.43.426h32.036a.428.428 0 0 0 .429-.426V12.87a.428.428 0 0 0-.429-.426H13.897a.428.428 0 0 0-.43.426zm9.5.426h22.535v3.662H22.967v-3.662zm0 4.514h22.535v3.661H22.967V17.81zm0 4.512h22.535v3.903H22.967v-3.903zm-8.64-9.026h7.781v3.662h-7.781v-3.662zm0 4.514h7.781v3.661h-7.781V17.81zm0 4.512h7.781v3.903h-7.781v-3.903zM45.933 28.99H13.897a.428.428 0 0 0-.43.426v13.779c0 .235.192.425.43.425s.43-.19.43-.425v-4.328h7.781v4.328c0 .235.193.425.43.425.238 0 .43-.19.43-.425v-4.328h22.535v4.328c0 .235.193.425.43.425s.43-.19.43-.425V29.416a.426.426 0 0 0-.428-.426zm-23.825 9.026h-7.781v-3.66h7.781v3.66zm0-4.512h-7.781v-3.661h7.781v3.661zm23.394 4.512H22.967v-3.66h22.535v3.66zm0-4.512H22.967v-3.661h22.535v3.661zM7.794 3a.428.428 0 0 0-.43.426v43.907c0 .235.193.425.43.425s.43-.191.43-.425V3.426A.428.428 0 0 0 7.794 3zM5.43 3a.428.428 0 0 0-.43.426v43.907c0 .235.193.425.43.425s.429-.191.429-.425V3.426A.428.428 0 0 0 5.43 3z"/></symbol></defs></svg>