<svg aria-hidden="true" style="position:absolute;width:0;height:0;overflow:hidden" xmlns="http://www.w3.org/2000/svg"><defs><symbol id="left-arrow" viewBox="0 0 54 32"><path fill="#ff6b09" style="fill:var(--color1, #ff6b09)" d="M52 14a2 2 0 1 1 0 4v-4zM.586 17.414C.224 17.052 0 16.552 0 16s.224-1.052.586-1.414L13.314 1.858a2 2 0 0 1 2.825 2.829l.001-.001L4.828 16l11.314 11.314a2 2 0 1 1-2.827 2.829l-.001-.001L.586 17.414zM52 18H2v-4h50v4z"/></symbol><symbol id="right-arrow" viewBox="0 0 54 32"><path fill="#ff6b09" style="fill:var(--color1, #ff6b09)" d="M2 14a2 2 0 1 0 0 4v-4zm51.414 3.414c.362-.362.586-.862.586-1.414s-.224-1.052-.586-1.414L40.686 1.858a2 2 0 1 0-2.829 2.827l.001.001L49.172 16 37.858 27.314a2 2 0 0 0 2.829 2.827l-.001.001 12.728-12.728zM2 18h50v-4H2v4z"/></symbol></defs></svg>