<svg width="80" height="30" viewBox="0 0 80 30" fill="none" xmlns="http://www.w3.org/2000/svg">
<path d="M11.1874 4.52322V16.6289H7.86144V11.9077H3.326V16.6289H0V4.52322H3.326V9.0715H7.86144V4.52322H11.1874Z" fill="white"/>
<path d="M23.3603 11.9596C23.3603 11.9826 23.3435 12.2536 23.3099 12.7724H16.6915C16.8259 13.2566 17.0835 13.6313 17.4642 13.8965C17.8562 14.1501 18.3433 14.2769 18.9257 14.2769C19.3624 14.2769 19.7376 14.2135 20.0511 14.0867C20.3759 13.9599 20.7006 13.7524 21.0254 13.4641L22.7052 15.2627C21.8205 16.2773 20.5271 16.7846 18.8249 16.7846C17.761 16.7846 16.8259 16.577 16.0196 16.162C15.2133 15.7469 14.5862 15.1705 14.1382 14.4326C13.7015 13.6947 13.4831 12.8588 13.4831 11.925C13.4831 11.0026 13.6959 10.1783 14.1214 9.45196C14.5582 8.71409 15.1573 8.13763 15.9188 7.72258C16.6803 7.30753 17.537 7.1 18.4889 7.1C19.396 7.1 20.2191 7.296 20.9582 7.68799C21.6973 8.06845 22.2796 8.62762 22.7052 9.36549C23.1419 10.0918 23.3603 10.9565 23.3603 11.9596ZM18.5057 9.43467C18.013 9.43467 17.5986 9.57878 17.2627 9.86701C16.9379 10.1552 16.7307 10.5472 16.6411 11.043H20.3703C20.2807 10.5472 20.0679 10.1552 19.732 9.86701C19.4072 9.57878 18.9984 9.43467 18.5057 9.43467Z" fill="white"/>
<path d="M25.5038 3.79688H28.6954V16.6289H25.5038V3.79688Z" fill="white"/>
<path d="M31.4414 3.79688H34.6331V16.6289H31.4414V3.79688Z" fill="white"/>
<path d="M2.815 25.3228H3.625V28.8228H2.815V25.3228ZM1.225 28.8228H0.415V25.3228H1.225V28.8228ZM2.875 27.3878H1.165V26.7028H2.875V27.3878ZM6.09809 26.7328H7.78309V27.3628H6.09809V26.7328ZM6.15809 28.1728H8.06309V28.8228H5.35309V25.3228H7.99809V25.9728H6.15809V28.1728ZM9.60758 28.8228V25.3228H10.4176V28.1628H12.1726V28.8228H9.60758ZM13.5252 28.8228V25.3228H14.3352V28.1628H16.0902V28.8228H13.5252ZM17.4427 28.8228V25.3228H18.2527V28.8228H17.4427ZM21.1334 28.8828C20.8534 28.8828 20.585 28.8461 20.3284 28.7728C20.0717 28.6961 19.865 28.5978 19.7084 28.4778L19.9834 27.8678C20.1334 27.9744 20.31 28.0628 20.5134 28.1328C20.72 28.1994 20.9284 28.2328 21.1384 28.2328C21.2984 28.2328 21.4267 28.2178 21.5234 28.1878C21.6234 28.1544 21.6967 28.1094 21.7434 28.0528C21.79 27.9961 21.8134 27.9311 21.8134 27.8578C21.8134 27.7644 21.7767 27.6911 21.7034 27.6378C21.63 27.5811 21.5334 27.5361 21.4134 27.5028C21.2934 27.4661 21.16 27.4328 21.0134 27.4028C20.87 27.3694 20.725 27.3294 20.5784 27.2828C20.435 27.2361 20.3034 27.1761 20.1834 27.1028C20.0634 27.0294 19.965 26.9328 19.8884 26.8128C19.815 26.6928 19.7784 26.5394 19.7784 26.3528C19.7784 26.1528 19.8317 25.9711 19.9384 25.8078C20.0484 25.6411 20.2117 25.5094 20.4284 25.4128C20.6484 25.3128 20.9234 25.2628 21.2534 25.2628C21.4734 25.2628 21.69 25.2894 21.9034 25.3428C22.1167 25.3928 22.305 25.4694 22.4684 25.5728L22.2184 26.1878C22.055 26.0944 21.8917 26.0261 21.7284 25.9828C21.565 25.9361 21.405 25.9128 21.2484 25.9128C21.0917 25.9128 20.9634 25.9311 20.8634 25.9678C20.7634 26.0044 20.6917 26.0528 20.6484 26.1128C20.605 26.1694 20.5834 26.2361 20.5834 26.3128C20.5834 26.4028 20.62 26.4761 20.6934 26.5328C20.7667 26.5861 20.8634 26.6294 20.9834 26.6628C21.1034 26.6961 21.235 26.7294 21.3784 26.7628C21.525 26.7961 21.67 26.8344 21.8134 26.8778C21.96 26.9211 22.0934 26.9794 22.2134 27.0528C22.3334 27.1261 22.43 27.2228 22.5034 27.3428C22.58 27.4628 22.6184 27.6144 22.6184 27.7978C22.6184 27.9944 22.5634 28.1744 22.4534 28.3378C22.3434 28.5011 22.1784 28.6328 21.9584 28.7328C21.7417 28.8328 21.4667 28.8828 21.1334 28.8828ZM26.4718 25.3228H27.2818V28.8228H26.4718V25.3228ZM24.8818 28.8228H24.0718V25.3228H24.8818V28.8228ZM26.5318 27.3878H24.8218V26.7028H26.5318V27.3878Z" fill="#FF6B09"/>
<path d="M32.0709 26.7328H33.7559V27.3628H32.0709V26.7328ZM32.1309 28.1728H34.0359V28.8228H31.3259V25.3228H33.9709V25.9728H32.1309V28.1728ZM35.5804 28.8228V25.3228H36.2504L38.3154 27.8428H37.9904V25.3228H38.7904V28.8228H38.1254L36.0554 26.3028H36.3804V28.8228H35.5804ZM42.2085 28.8828C41.9318 28.8828 41.6768 28.8394 41.4435 28.7528C41.2135 28.6628 41.0118 28.5361 40.8385 28.3728C40.6685 28.2094 40.5352 28.0178 40.4385 27.7978C40.3452 27.5778 40.2985 27.3361 40.2985 27.0728C40.2985 26.8094 40.3452 26.5678 40.4385 26.3478C40.5352 26.1278 40.6702 25.9361 40.8435 25.7728C41.0168 25.6094 41.2202 25.4844 41.4535 25.3978C41.6868 25.3078 41.9435 25.2628 42.2235 25.2628C42.5335 25.2628 42.8118 25.3144 43.0585 25.4178C43.3085 25.5211 43.5185 25.6711 43.6885 25.8678L43.1685 26.3478C43.0418 26.2144 42.9035 26.1161 42.7535 26.0528C42.6035 25.9861 42.4402 25.9528 42.2635 25.9528C42.0935 25.9528 41.9385 25.9794 41.7985 26.0328C41.6585 26.0861 41.5368 26.1628 41.4335 26.2628C41.3335 26.3628 41.2552 26.4811 41.1985 26.6178C41.1452 26.7544 41.1185 26.9061 41.1185 27.0728C41.1185 27.2361 41.1452 27.3861 41.1985 27.5228C41.2552 27.6594 41.3335 27.7794 41.4335 27.8828C41.5368 27.9828 41.6568 28.0594 41.7935 28.1128C41.9335 28.1661 42.0868 28.1928 42.2535 28.1928C42.4135 28.1928 42.5685 28.1678 42.7185 28.1178C42.8718 28.0644 43.0202 27.9761 43.1635 27.8528L43.6235 28.4378C43.4335 28.5811 43.2118 28.6911 42.9585 28.7678C42.7085 28.8444 42.4585 28.8828 42.2085 28.8828ZM42.8835 28.3328V27.0178H43.6235V28.4378L42.8835 28.3328ZM45.2759 28.8228V25.3228H46.0859V28.1628H47.8409V28.8228H45.2759ZM49.1935 28.8228V25.3228H50.0035V28.8228H49.1935ZM52.8841 28.8828C52.6041 28.8828 52.3358 28.8461 52.0791 28.7728C51.8225 28.6961 51.6158 28.5978 51.4591 28.4778L51.7341 27.8678C51.8841 27.9744 52.0608 28.0628 52.2641 28.1328C52.4708 28.1994 52.6791 28.2328 52.8891 28.2328C53.0491 28.2328 53.1775 28.2178 53.2741 28.1878C53.3741 28.1544 53.4475 28.1094 53.4941 28.0528C53.5408 27.9961 53.5641 27.9311 53.5641 27.8578C53.5641 27.7644 53.5275 27.6911 53.4541 27.6378C53.3808 27.5811 53.2841 27.5361 53.1641 27.5028C53.0441 27.4661 52.9108 27.4328 52.7641 27.4028C52.6208 27.3694 52.4758 27.3294 52.3291 27.2828C52.1858 27.2361 52.0541 27.1761 51.9341 27.1028C51.8141 27.0294 51.7158 26.9328 51.6391 26.8128C51.5658 26.6928 51.5291 26.5394 51.5291 26.3528C51.5291 26.1528 51.5825 25.9711 51.6891 25.8078C51.7991 25.6411 51.9625 25.5094 52.1791 25.4128C52.3991 25.3128 52.6741 25.2628 53.0041 25.2628C53.2241 25.2628 53.4408 25.2894 53.6541 25.3428C53.8675 25.3928 54.0558 25.4694 54.2191 25.5728L53.9691 26.1878C53.8058 26.0944 53.6425 26.0261 53.4791 25.9828C53.3158 25.9361 53.1558 25.9128 52.9991 25.9128C52.8425 25.9128 52.7141 25.9311 52.6141 25.9678C52.5141 26.0044 52.4425 26.0528 52.3991 26.1128C52.3558 26.1694 52.3341 26.2361 52.3341 26.3128C52.3341 26.4028 52.3708 26.4761 52.4441 26.5328C52.5175 26.5861 52.6141 26.6294 52.7341 26.6628C52.8541 26.6961 52.9858 26.7294 53.1291 26.7628C53.2758 26.7961 53.4208 26.8344 53.5641 26.8778C53.7108 26.9211 53.8441 26.9794 53.9641 27.0528C54.0841 27.1261 54.1808 27.2228 54.2541 27.3428C54.3308 27.4628 54.3691 27.6144 54.3691 27.7978C54.3691 27.9944 54.3141 28.1744 54.2041 28.3378C54.0941 28.5011 53.9291 28.6328 53.7091 28.7328C53.4925 28.8328 53.2175 28.8828 52.8841 28.8828ZM58.2226 25.3228H59.0326V28.8228H58.2226V25.3228ZM56.6326 28.8228H55.8226V25.3228H56.6326V28.8228ZM58.2826 27.3878H56.5726V26.7028H58.2826V27.3878Z" fill="white"/>
<path d="M66.2949 13.9827V16.6286H56.8545V4.52295H66.0766V7.16891H60.1469V9.20958H65.3711V11.7691H60.1469V13.9827H66.2949Z" fill="white"/>
<path d="M80 4.52295V16.6286H77.2619L72.0713 10.178V16.6286H68.8125V4.52295H71.5506L76.7412 10.9736V4.52295H80Z" fill="white"/>
<g clip-path="url(#clip0_13_0)">
<path d="M52.1512 10.3468C51.9795 9.95069 51.7426 9.56067 51.3961 9.11018C50.5226 7.97943 50.256 5.45792 50.2531 5.43373C50.2412 5.3128 50.1583 5.21302 50.0488 5.17674C49.9362 5.14046 49.8148 5.17372 49.7349 5.26442C48.6925 6.46471 49.1308 8.31805 49.3677 9.05879C49.4328 9.26135 49.5039 9.5002 49.5542 9.74207C49.9392 11.6982 49.1959 12.5841 49.0212 12.7625C48.8524 12.8108 48.7369 12.7866 48.6303 12.6687C48.2631 12.2545 48.1417 10.897 48.3135 9.12833C48.349 8.76854 48.3401 8.44504 48.2898 8.1427C47.9276 5.96878 46.5995 4.57433 46.2614 4.0853C45.3316 2.67035 45.2368 0.315118 45.2339 0.293954C45.2309 0.182089 45.1687 0.0823165 45.071 0.0339421C44.9762 -0.0144323 44.8608 -0.00838549 44.7719 0.0551059C43.2203 1.14051 43.3535 3.75575 43.5697 5.21605C43.62 5.55467 43.7177 5.89934 43.8865 6.3347C44.4876 7.89176 43.7681 9.90232 43.7622 9.92046C43.7562 9.9386 43.7503 9.95371 43.7474 9.97185C43.6556 10.4677 43.5016 10.764 43.3298 10.764C43.3121 10.764 43.2943 10.761 43.2736 10.7549C43.0633 10.7096 42.9538 10.4798 42.9508 10.2802C42.9389 7.70128 40.4249 6.83357 40.3983 6.8245C40.2857 6.78821 40.1614 6.82147 40.0844 6.9152C40.0044 7.00892 39.9896 7.13893 40.0429 7.24777C40.0725 7.31126 40.1673 7.58942 40.1021 8.57202C40.0459 9.45485 39.8889 10.3286 39.6372 11.1661C39.0391 13.1736 39.1338 15.0753 39.1398 15.1661C39.5997 20.3151 46.7926 21.2174 51.0615 18.3164C51.5293 17.999 51.9113 17.6362 52.1926 17.2371C53.768 14.9998 52.8412 11.9613 52.1512 10.3468ZM41.2097 15.2658C41.2185 15.4321 41.0942 15.5742 40.9313 15.5833H40.9135C40.7566 15.5833 40.6263 15.4593 40.6174 15.2991C40.5908 14.8577 40.5967 14.3951 40.6293 13.8932C40.6411 13.7269 40.7832 13.603 40.9461 13.612C41.109 13.6241 41.2333 13.7692 41.2215 13.9355C41.1889 14.4132 41.183 14.8486 41.2097 15.2658ZM41.3547 12.5871C41.337 12.7413 41.2096 12.8532 41.0616 12.8532C41.0497 12.8532 41.0379 12.8532 41.0231 12.8501C40.8632 12.829 40.7477 12.6808 40.7654 12.5145L40.9076 11.3475C40.9283 11.1842 41.0734 11.0663 41.2392 11.0845C41.4021 11.1056 41.5176 11.2568 41.4969 11.4231L41.3547 12.5871Z" fill="#FF6B09"/>
<path d="M50.1483 4.13611C49.9868 4.11056 49.8761 3.95646 49.901 3.79156C49.9195 3.66872 50.0264 3.03985 50.3168 2.72364C50.4285 2.6017 50.6157 2.59535 50.7354 2.70991C50.8547 2.82401 50.8607 3.01536 50.7488 3.1373C50.6259 3.2712 50.5212 3.65442 50.4863 3.88372C50.4613 4.04686 50.3122 4.16135 50.1483 4.13611Z" fill="#FF6B09"/>
<path d="M39.3526 5.64219C39.2959 5.41734 39.1551 5.04652 39.0199 4.92546C38.8969 4.81532 38.8846 4.6243 38.9924 4.49883C39.1 4.37305 39.2869 4.3602 39.4103 4.47077C39.7294 4.75642 39.8961 5.37159 39.9263 5.49189C39.9668 5.65355 39.8714 5.818 39.7132 5.85963C39.5515 5.90114 39.3929 5.80116 39.3526 5.64219Z" fill="#FF6B09"/>
</g>
<defs>
<clipPath id="clip0_13_0">
<rect width="14.2137" height="19.9544" fill="white" transform="translate(38.8809)"/>
</clipPath>
</defs>
</svg>
