<svg aria-hidden="true" xmlns="http://www.w3.org/2000/svg">
    <defs>
        <symbol id="icon-Advantages-1" viewBox="0 0 31 32">
            <path fill="#ff6b09" style="fill:var(--color1, #ff6b09)" d="M7.954 23.275h12.363c.061-1.41-.04-3.749-.907-4.863l-.031-.04-1.894-.951c.041-.139.062-.266.07-.359a.664.664 0 0 0-.046-.313c-.313-.748-.974-1.141-1.338-1.309.111-.223.182-.463.217-.708a.608.608 0 0 0 .425-.435l.001-.004.221-.898a.61.61 0 0 0-.071-.465l.002.003a.585.585 0 0 0-.135-.153l-.001-.001c.623-1.416-.421-2.751-.478-2.822-1.131-1.222-2.559-.994-2.635-.98-2.062.431-2.857 2.012-2.408 3.864a.603.603 0 0 0-.138.558l-.001-.004.222.899a.605.605 0 0 0 .423.437c.066.456.256.86.534 1.185l-.003-.003v.712c-2.958 1.515-1.084.548-3.454 1.748-.005.022-1.112 1.199-.948 4.689l.01.213zm11.933-.448h-2.035v-.855l1.346-3.081c.674 1.119.699 3.256.689 3.936zm-2.777-5.803c-.078.902-.573.63-.879 1.324a1.025 1.025 0 0 1-.248-.92c.117-.622-.263-.807-.169-1.461l.014-.015v-.002c.008-.009.083-.098.105-.126.805.351 1.193 1.003 1.177 1.2zm-4.318-.709c.366.258.821.413 1.312.413.47 0 .906-.141 1.269-.383l-.008.005c.051.514.252.617.181.995-.012.059-.02.13-.025.203v.005l-1.386 1.562-1.771-1.997.428-.223v-.579zm-.557-1.911v-2.388c.215-.399.51-.688.875-.862.979.554 2.105 1.38 2.86 2.212-.001 1.059.003 1.062-.004 1.149l-.001.006a1.869 1.869 0 0 1-1.864 1.759 1.874 1.874 0 0 1-1.868-1.865v-.011.001zm-.276 2.93 2.177 2.454 1.462-1.647c.033.096.08.187.134.275l-1.595 1.995-2.379-2.975.202-.102zm4.457-3.29v-.691l.166-.191c.009.35.047-.063-.166.882zm-2.617-4.628c.088.006 1.276-.181 2.215.833.037.046.801 1.031.494 2.108-.105-.479-.288-1.093-.578-1.386l-.316.315c.286.289.474 1.171.545 1.628-1.311-1.372-3.002-2.24-3.025-2.255-.085.053-.801.189-1.32 1.199l-.025.048v.742l-.066.001c-.331-1.595.302-2.861 2.076-3.233zm-2.122 3.693.113.456v.479l-.187-.756c-.027-.113.056-.156.074-.178zm-.328 4.531 2.787 3.486 1.886-2.358c.205.184.304.21.739.433l-.147-.498c-.037-.126.11-.329.199-.422.2-.11.365-.262.485-.446l.003-.005 1.538.772-1.431 3.277v.948h-6.544v-.948l-1.432-3.277 1.917-.962zm-2.276 1.253 1.346 3.08v.854H8.384c-.01-.68.015-2.815.689-3.934z"/>
            <path fill="none" stroke="#ff6b09" style="stroke:var(--color1, #ff6b09)" stroke-width=".615" d="M31.011 4.616V.308H.308v31.387h30.703v-4.308"/>
        </symbol>
        <symbol id="icon-Advantages-2" viewBox="0 0 31 32">
            <path fill="#ff6b09" style="fill:var(--color1, #ff6b09)" d="M20.408 8.558h-7.117a.84.84 0 0 0-.84.84v2.946l-5.287 2.219a.171.171 0 0 0-.023.306h.001l.674.403v4.301a.777.777 0 0 0-.603.756v.415c0 .095.077.172.172.172h1.207a.172.172 0 0 0 .172-.172v-.415a.777.777 0 0 0-.604-.756v-4.095l.533.319c-.016.123-.002-.214-.008 2.002 0 .729 1.866 1.119 3.765 1.141v3.356a.84.84 0 0 0 .839.839h7.118a.84.84 0 0 0 .839-.839V9.397a.846.846 0 0 0-.839-.84zM8.421 20.33v.242h-.863v-.242a.433.433 0 1 1 .864 0zm11.987 2.461h-7.117a.494.494 0 0 1-.496-.494v-1.164h8.106v1.164c0 .27-.225.494-.494.494zm.494-2.001h-8.106v-1.847c.927-.01 3.767-.215 3.767-1.142-.001-1.392.002-1.957-.004-2.005l1.546-.926a.173.173 0 0 0-.021-.306h-.001l-5.287-2.219v-1.438h8.106v9.884zm-8.278-4.133c-.955 0-2.794.123-3.593.645.005-1.595-.055-1.492.141-1.627.496-.365 1.916-.62 3.451-.62.67 0 3.595.184 3.595.803v1.444c-.806-.526-2.636-.645-3.595-.645zm.172-7.259c0-.273.222-.495.495-.495h7.117c.273 0 .494.225.494.495v1.163h-8.106V9.398zm-.172 3.247 5.012 2.104-1.242.743c-.66-.655-2.845-.782-3.77-.782s-3.111.127-3.77.782l-1.242-.743 5.013-2.104zm-3.593 5.156c0-.279 1.234-.799 3.593-.799 2.36 0 3.595.52 3.595.799s-1.235.799-3.595.799c-2.359 0-3.593-.52-3.593-.799z"/>
            <path fill="#ff6b09" style="fill:var(--color1, #ff6b09)" d="M16.85 21.393a.57.57 0 1 0 0 1.139.57.57 0 0 0 0-1.139zm0 .795a.226.226 0 0 1-.001-.45h.001a.226.226 0 0 1 .001.45zm.656-12.627h-1.314v.344h1.314v-.344z"/>
            <path fill="none" stroke="#ff6b09" style="stroke:var(--color1, #ff6b09)" stroke-width=".615" d="M31.08 4.616V.308H.308v31.387H31.08v-4.308"/>
        </symbol>
        <symbol id="icon-Advantages-3" viewBox="0 0 31 32">
            <path fill="#ff6b09" style="fill:var(--color1, #ff6b09)" d="M7.944 14.959c0 .165-.25.165-.25 0a6.343 6.343 0 0 1 12.686 0c0 .165-.249.165-.249 0 0-2.367-3.89-2.369-3.89 0 0 .165-.256.165-.256 0 0-2.361-3.896-2.361-3.896 0 0 .165-.256.165-.256 0 0-2.357-3.889-2.373-3.889 0zm3.911-.919c.068-1.363.282-2.585.593-3.517.249-.742.563-1.304.919-1.62a6.1 6.1 0 0 0-5.324 4.949c.921-1.328 3.047-1.222 3.811.189zm4.11-.062c-.069-1.31-.277-2.482-.577-3.376-.772-2.314-1.932-2.314-2.704 0-.299.894-.506 2.066-.576 3.377.831-1.412 3.026-1.412 3.857 0zm4.064-.127a6.095 6.095 0 0 0-5.323-4.949c.358.316.671.879.919 1.62.311.933.526 2.155.593 3.517.768-1.418 2.901-1.502 3.811-.189zm-6.825 4.01v-1.288c-.232.154-.415.392-.415.683 0 .283.186.47.415.605zm.25.401c-.445-.204-.913-.442-.913-1.005 0-.581.442-.871.913-1.089v2.094zm1.415 1.543v1.303c.235-.156.419-.395.419-.686 0-.286-.189-.479-.419-.617zm-.249-.402c.446.206.918.452.918 1.018 0 .582-.445.873-.918 1.089v-2.107z"/>
            <path fill="#ff6b09" style="fill:var(--color1, #ff6b09)" d="M14.869 15.107c1.024.237 2.077 1.003 2.077 2.149 0 .981-1.658.945-1.658 0 0-.292-.184-.531-.419-.686v1.833c.948.31 2.08.865 2.08 2.019 0 1.147-1.053 1.912-2.08 2.147-.004 1.091-1.662 1.09-1.665-.002-.584-.135-1.092-.407-1.459-.768-.385-.381-.612-.858-.612-1.378 0-.966 1.656-.966 1.656 0 0 .289.182.527.415.682v-1.832c-.94-.304-2.079-.876-2.079-2.019 0-1.147 1.053-1.912 2.079-2.147.004-1.091 1.662-1.09 1.665.002zm-1.415.003v.199c-.975.193-2.08.818-2.08 1.944 0 1.083 1.213 1.568 2.08 1.836v2.42c-.469-.214-.914-.503-.914-1.087 0-.638-1.159-.638-1.159 0 0 .451.201.867.539 1.199.43.425.951.628 1.533.743v.201c0 .768 1.167.768 1.167 0v-.199c.978-.195 2.078-.819 2.078-1.944 0-1.093-1.21-1.563-2.078-1.837v-2.419c.47.214.918.503.918 1.09 0 .622 1.157.647 1.157 0 0-1.125-1.099-1.751-2.075-1.945v-.201c0-.768-1.166-.768-1.166 0z"/>
            <path fill="none" stroke="#ff6b09" style="stroke:var(--color1, #ff6b09)" stroke-width=".615" d="M31.08 4.616V.308H.308v31.387H31.08v-4.308"/>
        </symbol>
        <symbol id="icon-ampfire" viewBox="0 0 23 32">
            <path fill="#ff6b09" style="fill:var(--color1, #ff6b09)" d="M21.915 16.593c-.284-.636-.675-1.261-1.247-1.984-1.442-1.813-1.883-5.856-1.888-5.895a.49.49 0 0 0-.334-.411l-.003-.001a.496.496 0 0 0-.517.14c-1.722 1.924-.997 4.896-.607 6.084.108.325.225.708.309 1.095.635 3.137-.593 4.558-.881 4.844-.278.078-.469.039-.645-.149-.606-.665-.806-2.842-.523-5.678a5.827 5.827 0 0 0-.044-1.615l.005.034c-.597-3.486-2.79-5.723-3.349-6.507C10.656 4.281 10.5.504 10.495.47a.488.488 0 0 0-.764-.382l.002-.001C7.171 1.829 7.392 6.022 7.749 8.364c.082.543.243 1.095.523 1.794.992 2.496-.196 5.721-.206 5.749a.524.524 0 0 0-.025.083c-.151.795-.405 1.269-.689 1.269a.3.3 0 0 1-.095-.015l.002.001c-.348-.073-.528-.441-.533-.761-.019-4.137-4.171-5.527-4.213-5.542a.485.485 0 0 0-.518.144l-.001.001a.474.474 0 0 0-.068.536l-.001-.003c.049.102.206.548.098 2.124a18.128 18.128 0 0 1-.803 4.288l.035-.128c-.987 3.22-.831 6.27-.821 6.415.759 8.257 12.636 9.705 19.683 5.052.772-.509 1.403-1.09 1.867-1.73 2.603-3.588 1.072-8.461-.067-11.051zM3.85 24.48l.001.025c0 .259-.203.47-.458.484h-.034a.486.486 0 0 1-.485-.454v-.001a17.442 17.442 0 0 1 .019-2.255.494.494 0 0 1 .524-.45h-.001a.488.488 0 0 1 .456.487l-.001.032v-.001a15.785 15.785 0 0 0-.02 2.133zm.24-4.295a.485.485 0 0 1-.482.427h-.003c-.019 0-.039 0-.064-.005a.488.488 0 0 1-.424-.54v.002l.235-1.872a.495.495 0 0 1 .55-.421H3.9a.488.488 0 0 1 .426.543l-.235 1.867zM18.609 6.634a.486.486 0 0 1-.409-.555v.003c.031-.197.207-1.205.687-1.713a.488.488 0 0 1 .691-.021c.196.182.207.49.021.685-.203.214-.375.829-.433 1.197a.49.49 0 0 1-.56.405h.003zM.785 9.049c-.094-.361-.326-.956-.549-1.15a.483.483 0 0 1-.046-.685.49.49 0 0 1 .691-.045H.88c.527.458.802 1.444.852 1.637a.484.484 0 0 1-.349.589l-.003.001a.49.49 0 0 1-.594-.346l-.001-.003z"/>
        </symbol>
        <symbol id="icon-About" viewBox="0 0 19 15">
            <path fill="#ff6b09" style="fill:var(--color1, #ff6b09)" d="M17.018.71c-.733.311-1.436.691-2.106 1.115-1.349.842-2.582 1.845-3.739 2.915a40.408 40.408 0 0 0-3.25 3.413L6.529 9.78 1.79 3.039.001 7.746l6.409 7.255c.622-1.196 1.221-2.376 1.809-3.402.146-.261.299-.506.445-.756 0 0 .752-1.255.95-1.571a38 38 0 0 1 2.587-3.666c.943-1.168 1.967-2.283 3.129-3.263A13.97 13.97 0 0 1 17.182.997a10.543 10.543 0 0 1 2.104-.996 10.83 10.83 0 0 0-2.268.71z"/>
        </symbol>
        <symbol id="icon-campfire" viewBox="0 0 11 15">
            <path fill="#ff6b09" style="fill:var(--color1, #ff6b09)" d="M10.503 7.778a4.295 4.295 0 0 0-.598-.93c-.691-.85-.902-2.745-.905-2.764a.229.229 0 0 0-.162-.193.241.241 0 0 0-.248.066c-.825.902-.478 2.295-.291 2.852.052.152.108.332.148.514.305 1.47-.284 2.136-.422 2.27-.134.036-.225.018-.309-.07-.291-.311-.387-1.332-.251-2.661a2.66 2.66 0 0 0-.019-.741c-.287-1.634-1.338-2.682-1.605-3.05C5.105 2.007 5.03.237 5.028.221a.221.221 0 0 0-.129-.195.24.24 0 0 0-.237.016c-1.228.816-1.123 2.782-.952 3.88.04.255.117.514.251.841.476 1.17-.094 2.682-.098 2.695s-.009.025-.012.039c-.073.373-.195.595-.33.595a.155.155 0 0 1-.045-.007c-.166-.034-.253-.207-.255-.357-.009-1.939-1.999-2.591-2.02-2.598a.237.237 0 0 0-.248.068.22.22 0 0 0-.033.25c.023.048.098.257.047.995a8.357 8.357 0 0 1-.368 1.95A9.341 9.341 0 0 0 .205 11.4c.364 3.871 6.057 4.549 9.436 2.368.37-.239.673-.511.895-.811 1.247-1.682.513-3.966-.033-5.18zm-8.66 3.698a.23.23 0 0 1-.22.239h-.014a.23.23 0 0 1-.234-.214 8.165 8.165 0 0 1 .009-1.057.234.234 0 0 1 .251-.211.23.23 0 0 1 .218.243c-.026.359-.03.686-.009 1zm.115-2.014a.23.23 0 0 1-.232.2c-.009 0-.019 0-.03-.002a.23.23 0 0 1-.204-.252l.113-.877a.235.235 0 0 1 .262-.198.23.23 0 0 1 .204.255l-.113.875zm6.96-6.353a.229.229 0 0 1-.196-.259c.015-.092.099-.565.329-.803.088-.092.237-.096.331-.01s.099.23.011.321c-.097.101-.18.389-.208.561a.234.234 0 0 1-.267.19zM.373 4.241C.328 4.072.217 3.793.11 3.702c-.097-.083-.107-.226-.022-.321s.233-.104.331-.021c.253.215.385.677.408.768a.226.226 0 0 1-.169.276.235.235 0 0 1-.285-.163z"/>
        </symbol>
        <symbol id="icon-menu2" viewBox="0 0 21 14">
            <path d="M0 1h20.5M0 7h20.5M0 13h20.5" stroke-width="2"/>
        </symbol>
        <symbol id="icon-modal-close-icon" viewBox="0 0 18 18">
            <path d="M1 17 17 1M17 17 1 1" stroke-width="2"/>
        </symbol>
        <symbol id="icon-mobile-logo-modal" viewBox="0 0 85 32">
            <path fill="#fff" style="fill:var(--color1, #fff)" d="M11.933 4.825v12.913H8.385v-5.036H3.547v5.036H-.001V4.825h3.548v4.851h4.838V4.825h3.548zM24.918 12.757c0 .025-.018.314-.054.867h-7.06c.143.516.418.916.824 1.199.418.271.938.406 1.559.406.466 0 .866-.068 1.2-.203a3.513 3.513 0 0 0 1.039-.664l1.792 1.919c-.944 1.082-2.323 1.623-4.139 1.623-1.135 0-2.132-.221-2.992-.664s-1.529-1.058-2.007-1.845c-.466-.787-.699-1.679-.699-2.675 0-.984.227-1.863.681-2.638.466-.787 1.105-1.402 1.917-1.845s1.726-.664 2.741-.664c.968 0 1.846.209 2.634.627a4.482 4.482 0 0 1 1.863 1.789c.466.775.699 1.697.699 2.767zm-5.179-2.693c-.526 0-.968.154-1.326.461-.346.307-.567.726-.663 1.254h3.978c-.096-.529-.323-.947-.681-1.254-.346-.307-.782-.461-1.308-.461zM27.204 4.05h3.404v13.688h-3.404V4.05zM33.538 4.05h3.404v13.688h-3.404V4.05z"/>
            <path fill="#ff6b09" style="fill:var(--color2, #ff6b09)" d="M3.003 27.011h.864v3.733h-.864v-3.733zm-1.696 3.733H.443v-3.733h.864v3.733zm1.76-1.53H1.243v-.731h1.824v.731zm3.438-.699h1.797v.672H6.505v-.672zm.064 1.536h2.032v.693H5.71v-3.733h2.821v.693H6.568v2.347zm3.679.693v-3.733h.864v3.029h1.872v.704h-2.736zm4.179 0v-3.733h.864v3.029h1.872v.704h-2.736zm4.179 0v-3.733h.864v3.733h-.864zm3.936.064a3.12 3.12 0 0 1-.859-.117 2.045 2.045 0 0 1-.661-.315l.293-.651a2.164 2.164 0 0 0 1.232.39c.171 0 .308-.016.411-.048.107-.036.185-.084.235-.144s.075-.13.075-.208c0-.1-.039-.178-.117-.235a.906.906 0 0 0-.309-.144 4.66 4.66 0 0 0-.427-.107 6.083 6.083 0 0 1-.464-.128c-.153-.05-.293-.114-.421-.192s-.233-.181-.315-.309a.932.932 0 0 1-.117-.491c0-.213.057-.407.171-.581.117-.178.292-.318.523-.421.235-.107.528-.16.88-.16.235 0 .466.028.693.085.228.053.428.135.603.245l-.267.656a2.183 2.183 0 0 0-1.035-.294c-.167 0-.304.02-.411.059a.47.47 0 0 0-.229.155.342.342 0 0 0-.069.213c0 .096.039.174.117.235.078.057.181.103.309.139s.268.071.421.107c.156.036.311.076.464.123.156.046.299.108.427.187s.231.181.309.309c.082.128.123.29.123.485 0 .21-.059.402-.176.576s-.293.315-.528.421c-.231.107-.524.16-.88.16zm5.695-3.797h.864v3.733h-.864v-3.733zm-1.696 3.733h-.864v-3.733h.864v3.733zm1.76-1.53h-1.824v-.731h1.824v.731z"/>
            <path fill="#fff" style="fill:var(--color1, #fff)" d="M34.209 28.515h1.797v.672h-1.797v-.672zm.064 1.536h2.032v.693h-2.891v-3.733h2.821v.693h-1.963v2.347zm3.679.693v-3.733h.715l2.203 2.688h-.347v-2.688h.853v3.733h-.709l-2.208-2.688h.347v2.688h-.853zm7.07.064c-.295 0-.567-.046-.816-.139a1.992 1.992 0 0 1-.645-.405 1.91 1.91 0 0 1-.427-.613c-.1-.235-.149-.492-.149-.773s.05-.539.149-.773c.103-.235.247-.439.432-.613s.402-.308.651-.4c.249-.096.523-.144.821-.144.331 0 .628.055.891.165.267.11.491.27.672.48l-.555.512a1.33 1.33 0 0 0-.443-.315 1.274 1.274 0 0 0-.523-.107c-.181 0-.347.028-.496.085s-.279.139-.389.245c-.107.107-.19.233-.251.379a1.324 1.324 0 0 0-.085.485c0 .174.028.334.085.48a1.2 1.2 0 0 0 .251.384c.11.107.238.188.384.245.149.057.313.085.491.085.171 0 .336-.027.496-.08.164-.057.322-.151.475-.283l.491.624c-.203.153-.439.27-.709.352a2.71 2.71 0 0 1-.8.123zm.72-.586v-1.403h.789v1.515l-.789-.112zm2.552.522v-3.733h.864v3.029h1.872v.704h-2.736zm4.179 0v-3.733h.864v3.733h-.864zm3.937.064a3.12 3.12 0 0 1-.859-.117 2.045 2.045 0 0 1-.661-.315l.293-.651a2.164 2.164 0 0 0 1.232.39c.171 0 .308-.016.411-.048.107-.036.185-.084.235-.144s.075-.13.075-.208c0-.1-.039-.178-.117-.235a.906.906 0 0 0-.309-.144 4.66 4.66 0 0 0-.427-.107 6.083 6.083 0 0 1-.464-.128c-.153-.05-.293-.114-.421-.192s-.233-.181-.315-.309a.932.932 0 0 1-.117-.491c0-.213.057-.407.171-.581.117-.178.292-.318.523-.421.235-.107.528-.16.88-.16.235 0 .466.028.693.085.228.053.428.135.603.245l-.267.656a2.183 2.183 0 0 0-1.035-.294c-.167 0-.304.02-.411.059a.47.47 0 0 0-.229.155.342.342 0 0 0-.069.213c0 .096.039.174.117.235.078.057.181.103.309.139s.268.071.421.107c.156.036.311.076.464.123.156.046.299.108.427.187s.231.181.309.309c.082.128.123.29.123.485 0 .21-.059.402-.176.576s-.293.315-.528.421c-.231.107-.524.16-.88.16zm5.694-3.797h.864v3.733h-.864v-3.733zm-1.696 3.733h-.864v-3.733h.864v3.733zm1.76-1.53h-1.824v-.731h1.824v.731zM70.715 14.915v2.822h-10.07V4.824h9.837v2.822h-6.325v2.177h5.572v2.73h-5.572v2.361h6.558zM85.333 4.824v12.913h-2.921l-5.537-6.881v6.881h-3.476V4.824h2.921l5.537 6.881V4.824h3.476z"/>
            <path fill="#ff6b09" style="fill:var(--color2, #ff6b09)" d="M55.628 11.037c-.183-.423-.436-.839-.805-1.319-.932-1.206-1.216-3.896-1.219-3.922a.323.323 0 0 0-.218-.274.314.314 0 0 0-.335.094c-1.112 1.28-.644 3.257-.392 4.047.069.216.145.471.199.729.411 2.087-.382 3.031-.569 3.222-.18.052-.303.026-.417-.1-.392-.442-.521-1.89-.338-3.776a3.995 3.995 0 0 0-.025-1.051c-.386-2.319-1.803-3.806-2.164-4.328C48.353 2.85 48.252.337 48.249.315a.316.316 0 0 0-.174-.277.306.306 0 0 0-.319.023c-1.655 1.158-1.513 3.947-1.282 5.505.054.361.158.729.338 1.193.641 1.661-.126 3.805-.133 3.825s-.013.035-.016.055c-.098.529-.262.845-.445.845a.193.193 0 0 1-.06-.01c-.224-.048-.341-.293-.344-.506-.013-2.751-2.694-3.676-2.723-3.686a.308.308 0 0 0-.335.097.325.325 0 0 0-.044.355c.032.068.133.364.063 1.413-.06.942-.227 1.874-.496 2.767a13.88 13.88 0 0 0-.531 4.267c.491 5.492 8.163 6.455 12.716 3.36a4.672 4.672 0 0 0 1.206-1.151c1.68-2.386.692-5.628-.044-7.35zm-11.671 5.247a.32.32 0 0 1-.297.339h-.019a.319.319 0 0 1-.316-.303c-.028-.471-.022-.964.013-1.5a.322.322 0 0 1 .338-.3.323.323 0 0 1 .294.345c-.035.51-.041.974-.013 1.419zm.155-2.858a.317.317 0 0 1-.313.284c-.013 0-.025 0-.041-.003a.324.324 0 0 1-.275-.358l.152-1.245a.321.321 0 0 1 .354-.281.322.322 0 0 1 .275.361l-.152 1.242zM53.492 4.412a.322.322 0 0 1-.264-.368c.02-.131.134-.802.444-1.139.119-.13.319-.137.447-.015s.134.326.014.456c-.131.143-.243.552-.28.796a.317.317 0 0 1-.361.269zM41.976 6.018c-.06-.24-.211-.635-.355-.764-.131-.117-.144-.321-.029-.455s.314-.148.446-.03c.34.305.518.961.55 1.089a.323.323 0 0 1-.227.392.316.316 0 0 1-.385-.232z"/>
        </symbol>
        <symbol id="icon-icon-check-1" viewBox="0 0 42 32">
            <path stroke-width=".64" d="m6.264 15.206-.221-.211-.221.208-3.085 2.925.243.234 11.411 10.882.221-.211L38.873 5.889l-.243-.23-3.044-2.903-.221.211-20.974 19.992-8.127-7.752z"/>
        </symbol>
        <symbol id="icon-logo-6" viewBox="0 0 85 32">
            <path fill="#ff6b09" style="fill:var(--color1, #ff6b09)" d="M3.003 27.2h.864v3.733h-.864V27.2zm-1.696 3.733H.443V27.2h.864v3.733zm1.76-1.53H1.243v-.731h1.824v.731zm3.438-.699h1.797v.672H6.505v-.672zm.064 1.536h2.032v.693H5.71V27.2h2.821v.693H6.568v2.347zm3.679.693V27.2h.864v3.029h1.872v.704h-2.736zm4.179 0V27.2h.864v3.029h1.872v.704h-2.736zm4.179 0V27.2h.864v3.733h-.864zm3.936.064a3.12 3.12 0 0 1-.859-.117 2.045 2.045 0 0 1-.661-.315l.293-.651a2.164 2.164 0 0 0 1.232.39c.171 0 .308-.016.411-.048.107-.036.185-.084.235-.144s.075-.13.075-.208c0-.1-.039-.178-.117-.235a.906.906 0 0 0-.309-.144 4.66 4.66 0 0 0-.427-.107 6.083 6.083 0 0 1-.464-.128c-.153-.05-.293-.114-.421-.192s-.233-.181-.315-.309a.932.932 0 0 1-.117-.491c0-.213.057-.407.171-.581.117-.178.292-.318.523-.421.235-.107.528-.16.88-.16.235 0 .466.028.693.085.228.053.428.135.603.245l-.267.656a2.183 2.183 0 0 0-1.035-.294c-.167 0-.304.02-.411.059s-.183.091-.229.155a.342.342 0 0 0-.069.213c0 .096.039.174.117.235.078.057.181.103.309.139s.268.071.421.107c.156.036.311.076.464.123.156.046.299.108.427.187s.231.181.309.309c.082.128.123.29.123.485 0 .21-.059.402-.176.576s-.293.315-.528.421c-.231.107-.524.16-.88.16zm5.695-3.797h.864v3.733h-.864V27.2zm-1.696 3.733h-.864V27.2h.864v3.733zm1.76-1.53h-1.824v-.731h1.824v.731z"/>
            <path fill="#111518" style="fill:var(--color2, #111518)" d="M34.209 28.704h1.797v.672h-1.797v-.672zm.064 1.536h2.032v.693h-2.891V27.2h2.821v.693h-1.963v2.347zm3.679.693V27.2h.715l2.203 2.688h-.347V27.2h.853v3.733h-.709l-2.208-2.688h.347v2.688h-.853zm7.07.064c-.295 0-.567-.046-.816-.139a1.992 1.992 0 0 1-.645-.405 1.91 1.91 0 0 1-.427-.613c-.1-.235-.149-.492-.149-.773s.05-.539.149-.773c.103-.235.247-.439.432-.613s.402-.308.651-.4c.249-.096.523-.144.821-.144.331 0 .628.055.891.165.267.11.491.27.672.48l-.555.512a1.33 1.33 0 0 0-.443-.315 1.274 1.274 0 0 0-.523-.107c-.181 0-.347.028-.496.085s-.279.139-.389.245c-.107.107-.19.233-.251.379a1.324 1.324 0 0 0-.085.485c0 .174.028.334.085.48a1.2 1.2 0 0 0 .251.384c.11.107.238.188.384.245.149.057.313.085.491.085.171 0 .336-.027.496-.08.164-.057.322-.151.475-.283l.491.624c-.203.153-.439.27-.709.352a2.71 2.71 0 0 1-.8.123zm.72-.586v-1.403h.789v1.515l-.789-.112zm2.552.522V27.2h.864v3.029h1.872v.704h-2.736zm4.179 0V27.2h.864v3.733h-.864zm3.937.064a3.12 3.12 0 0 1-.859-.117 2.045 2.045 0 0 1-.661-.315l.293-.651a2.164 2.164 0 0 0 1.232.39c.171 0 .308-.016.411-.048.107-.036.185-.084.235-.144s.075-.13.075-.208c0-.1-.039-.178-.117-.235a.906.906 0 0 0-.309-.144 4.66 4.66 0 0 0-.427-.107 6.083 6.083 0 0 1-.464-.128c-.153-.05-.293-.114-.421-.192s-.233-.181-.315-.309a.932.932 0 0 1-.117-.491c0-.213.057-.407.171-.581.117-.178.292-.318.523-.421.235-.107.528-.16.88-.16.235 0 .466.028.693.085.228.053.428.135.603.245l-.267.656a2.183 2.183 0 0 0-1.035-.294c-.167 0-.304.02-.411.059s-.183.091-.229.155a.342.342 0 0 0-.069.213c0 .096.039.174.117.235.078.057.181.103.309.139s.268.071.421.107c.156.036.311.076.464.123.156.046.299.108.427.187s.231.181.309.309c.082.128.123.29.123.485 0 .21-.059.402-.176.576s-.293.315-.528.421c-.231.107-.524.16-.88.16zm5.694-3.797h.864v3.733h-.864V27.2zm-1.696 3.733h-.864V27.2h.864v3.733zm1.76-1.53h-1.824v-.731h1.824v.731zM12.082 6.109v12.925H8.49v-5.041H3.592v5.041H0V6.109h3.592v4.856H8.49V6.109h3.592zM25.228 14.048c0 .025-.018.314-.054.868h-7.147c.145.517.423.917.834 1.2.423.271.949.406 1.578.406.472 0 .877-.068 1.215-.203a3.547 3.547 0 0 0 1.052-.665l1.814 1.92c-.955 1.083-2.352 1.625-4.191 1.625-1.149 0-2.159-.222-3.03-.665s-1.548-1.059-2.032-1.846c-.472-.788-.708-1.68-.708-2.677 0-.985.23-1.865.689-2.64.472-.788 1.119-1.403 1.941-1.846s1.748-.665 2.775-.665c.98 0 1.869.209 2.667.628a4.521 4.521 0 0 1 1.887 1.791c.472.775.707 1.699.707 2.77zm-5.243-2.695c-.532 0-.98.154-1.343.462-.351.308-.574.726-.671 1.256h4.027c-.097-.529-.326-.948-.689-1.256-.351-.308-.792-.462-1.324-.462zM27.542 5.333h3.447v13.7h-3.447v-13.7zM33.955 5.333h3.447v13.7h-3.447v-13.7z"/>
            <path fill="#ff6b09" style="fill:var(--color1, #ff6b09)" d="M55.516 11.062c-.181-.423-.43-.84-.795-1.322-.919-1.209-1.2-3.905-1.203-3.931a.323.323 0 0 0-.215-.275.306.306 0 0 0-.33.094c-1.097 1.283-.636 3.265-.386 4.057.069.217.143.472.196.73.405 2.091-.377 3.038-.561 3.229-.178.052-.299.026-.411-.1-.387-.443-.514-1.894-.334-3.785.037-.385.028-.73-.025-1.054-.381-2.324-1.779-3.815-2.135-4.338-.979-1.513-1.078-4.031-1.081-4.053a.318.318 0 0 0-.171-.278.3.3 0 0 0-.315.023c-1.633 1.16-1.493 3.956-1.265 5.518.053.362.156.731.334 1.196.633 1.665-.125 3.814-.131 3.834s-.012.036-.016.055c-.097.53-.259.847-.439.847a.187.187 0 0 1-.059-.01c-.221-.049-.337-.294-.34-.508-.012-2.757-2.659-3.685-2.687-3.695a.301.301 0 0 0-.33.097.33.33 0 0 0-.044.356c.031.068.131.365.062 1.416a12.543 12.543 0 0 1-.489 2.773 14.099 14.099 0 0 0-.524 4.276c.484 5.505 8.055 6.469 12.548 3.368a4.625 4.625 0 0 0 1.191-1.154c1.658-2.392.683-5.64-.044-7.366zm-11.517 5.259a.317.317 0 0 1-.293.339h-.019a.317.317 0 0 1-.312-.304c-.028-.472-.022-.966.012-1.503a.32.32 0 0 1 .334-.301.322.322 0 0 1 .29.346c-.034.511-.041.976-.012 1.422zm.153-2.864a.314.314 0 0 1-.309.284c-.012 0-.025 0-.041-.003a.323.323 0 0 1-.271-.359l.15-1.248a.317.317 0 0 1 .349-.281.322.322 0 0 1 .271.362l-.15 1.244zM53.408 4.422a.321.321 0 0 1-.26-.368c.02-.131.132-.804.438-1.142.118-.13.315-.137.441-.015s.132.327.014.457c-.129.143-.24.553-.276.798a.314.314 0 0 1-.356.27zM42.045 6.032c-.06-.24-.208-.637-.35-.766-.13-.118-.142-.322-.029-.456s.31-.148.44-.03c.336.305.511.963.543 1.092a.324.324 0 0 1-.224.393.313.313 0 0 1-.38-.232z"/>
            <path fill="#111518" style="fill:var(--color2, #111518)" d="M70.78 15.336v2.798H60.755v-12.8h9.793v2.798h-6.297v2.158h5.548v2.706h-5.548v2.34h6.529zM85.333 5.333v12.8h-2.908l-5.512-6.821v6.821h-3.461v-12.8h2.908l5.512 6.821V5.333h3.46z"/>
        </symbol>
        <symbol id="icon-menu" viewBox="0 0 21 12">
            <path stroke-linecap="round" stroke-width="4.571" d="M2.286 2.286h48M2.286 16h48M2.286 29.714h48"/>
        </symbol>
        <symbol id="icon-menu2" viewBox="0 0 23 14">
            <path d="M1 1h21M1 7h21M1 13h21" stroke="#000" stroke-width="2" stroke-linecap="round"/>
        </symbol>
        <symbol id="icon-Advantages-2" viewBox="0 0 31 32">
            <path fill="#ff6b09" style="fill:var(--color1, #ff6b09)" d="M20.408 8.558h-7.117a.84.84 0 0 0-.84.84v2.946l-5.287 2.219a.171.171 0 0 0-.023.306h.001l.674.403v4.301a.777.777 0 0 0-.603.756v.415c0 .095.077.172.172.172h1.207a.172.172 0 0 0 .172-.172v-.415a.777.777 0 0 0-.604-.756v-4.095l.533.319c-.016.123-.002-.214-.008 2.002 0 .729 1.866 1.119 3.765 1.141v3.356a.84.84 0 0 0 .839.839h7.118a.84.84 0 0 0 .839-.839V9.397a.846.846 0 0 0-.839-.84zM8.421 20.33v.242h-.863v-.242a.433.433 0 1 1 .864 0zm11.987 2.461h-7.117a.494.494 0 0 1-.496-.494v-1.164h8.106v1.164c0 .27-.225.494-.494.494zm.494-2.001h-8.106v-1.847c.927-.01 3.767-.215 3.767-1.142-.001-1.392.002-1.957-.004-2.005l1.546-.926a.173.173 0 0 0-.021-.306h-.001l-5.287-2.219v-1.438h8.106v9.884zm-8.278-4.133c-.955 0-2.794.123-3.593.645.005-1.595-.055-1.492.141-1.627.496-.365 1.916-.62 3.451-.62.67 0 3.595.184 3.595.803v1.444c-.806-.526-2.636-.645-3.595-.645zm.172-7.259c0-.273.222-.495.495-.495h7.117c.273 0 .494.225.494.495v1.163h-8.106V9.398zm-.172 3.247 5.012 2.104-1.242.743c-.66-.655-2.845-.782-3.77-.782s-3.111.127-3.77.782l-1.242-.743 5.013-2.104zm-3.593 5.156c0-.279 1.234-.799 3.593-.799 2.36 0 3.595.52 3.595.799s-1.235.799-3.595.799c-2.359 0-3.593-.52-3.593-.799z"/>
            <path fill="#ff6b09" style="fill:var(--color1, #ff6b09)" d="M16.85 21.393a.57.57 0 1 0 0 1.139.57.57 0 0 0 0-1.139zm0 .795a.226.226 0 0 1-.001-.45h.001a.226.226 0 0 1 .001.45zm.656-12.627h-1.314v.344h1.314v-.344z"/>
            <path fill="none" stroke="#ff6b09" style="stroke:var(--color1, #ff6b09)" stroke-width=".615" d="M31.08 4.616V.308H.308v31.387H31.08v-4.308"/>
        </symbol>
        <symbol id="icon-Advantages-3" viewBox="0 0 31 32">
            <path fill="#ff6b09" style="fill:var(--color1, #ff6b09)" d="M7.944 14.959c0 .165-.25.165-.25 0a6.343 6.343 0 0 1 12.686 0c0 .165-.249.165-.249 0 0-2.367-3.89-2.369-3.89 0 0 .165-.256.165-.256 0 0-2.361-3.896-2.361-3.896 0 0 .165-.256.165-.256 0 0-2.357-3.889-2.373-3.889 0zm3.911-.919c.068-1.363.282-2.585.593-3.517.249-.742.563-1.304.919-1.62a6.1 6.1 0 0 0-5.324 4.949c.921-1.328 3.047-1.222 3.811.189zm4.11-.062c-.069-1.31-.277-2.482-.577-3.376-.772-2.314-1.932-2.314-2.704 0-.299.894-.506 2.066-.576 3.377.831-1.412 3.026-1.412 3.857 0zm4.064-.127a6.095 6.095 0 0 0-5.323-4.949c.358.316.671.879.919 1.62.311.933.526 2.155.593 3.517.768-1.418 2.901-1.502 3.811-.189zm-6.825 4.01v-1.288c-.232.154-.415.392-.415.683 0 .283.186.47.415.605zm.25.401c-.445-.204-.913-.442-.913-1.005 0-.581.442-.871.913-1.089v2.094zm1.415 1.543v1.303c.235-.156.419-.395.419-.686 0-.286-.189-.479-.419-.617zm-.249-.402c.446.206.918.452.918 1.018 0 .582-.445.873-.918 1.089v-2.107z"/>
            <path fill="#ff6b09" style="fill:var(--color1, #ff6b09)" d="M14.869 15.107c1.024.237 2.077 1.003 2.077 2.149 0 .981-1.658.945-1.658 0 0-.292-.184-.531-.419-.686v1.833c.948.31 2.08.865 2.08 2.019 0 1.147-1.053 1.912-2.08 2.147-.004 1.091-1.662 1.09-1.665-.002-.584-.135-1.092-.407-1.459-.768-.385-.381-.612-.858-.612-1.378 0-.966 1.656-.966 1.656 0 0 .289.182.527.415.682v-1.832c-.94-.304-2.079-.876-2.079-2.019 0-1.147 1.053-1.912 2.079-2.147.004-1.091 1.662-1.09 1.665.002zm-1.415.003v.199c-.975.193-2.08.818-2.08 1.944 0 1.083 1.213 1.568 2.08 1.836v2.42c-.469-.214-.914-.503-.914-1.087 0-.638-1.159-.638-1.159 0 0 .451.201.867.539 1.199.43.425.951.628 1.533.743v.201c0 .768 1.167.768 1.167 0v-.199c.978-.195 2.078-.819 2.078-1.944 0-1.093-1.21-1.563-2.078-1.837v-2.419c.47.214.918.503.918 1.09 0 .622 1.157.647 1.157 0 0-1.125-1.099-1.751-2.075-1.945v-.201c0-.768-1.166-.768-1.166 0z"/>
            <path fill="none" stroke="#ff6b09" style="stroke:var(--color1, #ff6b09)" stroke-width=".615" d="M31.08 4.616V.308H.308v31.387H31.08v-4.308"/>
        </symbol>
        <symbol id="icon-ampfire" viewBox="0 0 23 32">
            <path fill="#ff6b09" style="fill:var(--color1, #ff6b09)" d="M21.915 16.593c-.284-.636-.675-1.261-1.247-1.984-1.442-1.813-1.883-5.856-1.888-5.895a.49.49 0 0 0-.334-.411l-.003-.001a.496.496 0 0 0-.517.14c-1.722 1.924-.997 4.896-.607 6.084.108.325.225.708.309 1.095.635 3.137-.593 4.558-.881 4.844-.278.078-.469.039-.645-.149-.606-.665-.806-2.842-.523-5.678a5.827 5.827 0 0 0-.044-1.615l.005.034c-.597-3.486-2.79-5.723-3.349-6.507C10.656 4.281 10.5.504 10.495.47a.488.488 0 0 0-.764-.382l.002-.001C7.171 1.829 7.392 6.022 7.749 8.364c.082.543.243 1.095.523 1.794.992 2.496-.196 5.721-.206 5.749a.524.524 0 0 0-.025.083c-.151.795-.405 1.269-.689 1.269a.3.3 0 0 1-.095-.015l.002.001c-.348-.073-.528-.441-.533-.761-.019-4.137-4.171-5.527-4.213-5.542a.485.485 0 0 0-.518.144l-.001.001a.474.474 0 0 0-.068.536l-.001-.003c.049.102.206.548.098 2.124a18.128 18.128 0 0 1-.803 4.288l.035-.128c-.987 3.22-.831 6.27-.821 6.415.759 8.257 12.636 9.705 19.683 5.052.772-.509 1.403-1.09 1.867-1.73 2.603-3.588 1.072-8.461-.067-11.051zM3.85 24.48l.001.025c0 .259-.203.47-.458.484h-.034a.486.486 0 0 1-.485-.454v-.001a17.442 17.442 0 0 1 .019-2.255.494.494 0 0 1 .524-.45h-.001a.488.488 0 0 1 .456.487l-.001.032v-.001a15.785 15.785 0 0 0-.02 2.133zm.24-4.295a.485.485 0 0 1-.482.427h-.003c-.019 0-.039 0-.064-.005a.488.488 0 0 1-.424-.54v.002l.235-1.872a.495.495 0 0 1 .55-.421H3.9a.488.488 0 0 1 .426.543l-.235 1.867zM18.609 6.634a.486.486 0 0 1-.409-.555v.003c.031-.197.207-1.205.687-1.713a.488.488 0 0 1 .691-.021c.196.182.207.49.021.685-.203.214-.375.829-.433 1.197a.49.49 0 0 1-.56.405h.003zM.785 9.049c-.094-.361-.326-.956-.549-1.15a.483.483 0 0 1-.046-.685.49.49 0 0 1 .691-.045H.88c.527.458.802 1.444.852 1.637a.484.484 0 0 1-.349.589l-.003.001a.49.49 0 0 1-.594-.346l-.001-.003z"/>
        </symbol>
        <symbol id="facebook" viewBox="0 0 31 32">
            <path fill="#436eab" style="fill:var(--color1, #436eab)" d="M26.318 2.314H4.767c-.779 0-1.527.307-2.078.853s-.861 1.287-.861 2.06V26.59c0 .773.31 1.514.861 2.06s1.299.853 2.078.853h8.403v-9.244H9.313v-4.351h3.857v-3.316c0-3.772 2.265-5.856 5.735-5.856 1.662 0 3.399.294 3.399.294v3.702H20.39c-1.886 0-2.475 1.16-2.475 2.351v2.825h4.211l-.673 4.351h-3.538v9.244h8.403c.779 0 1.527-.307 2.078-.853s.861-1.287.861-2.06V5.227c0-.773-.31-1.514-.861-2.06s-1.299-.853-2.078-.853z"/>
        </symbol>
        <symbol id="logo" viewBox="0 0 91 32">
            <path fill="#111518" style="fill:var(--color1, #111518)" d="M13.608 4.836v12.942H9.947v-5.047H4.955v5.047H1.294V4.836h3.661v4.863h4.992V4.836h3.661zm13.398 7.95c0 .025-.018.314-.055.869h-7.285c.148.518.431.918.851 1.202.431.271.968.407 1.609.407.481 0 .894-.068 1.239-.203a3.63 3.63 0 0 0 1.072-.666l1.849 1.923c-.974 1.085-2.397 1.627-4.271 1.627-1.171 0-2.2-.222-3.088-.666s-1.578-1.06-2.071-1.849c-.481-.789-.721-1.683-.721-2.681 0-.986.234-1.867.703-2.644.481-.789 1.14-1.405 1.978-1.849s1.781-.666 2.829-.666c.998 0 1.904.21 2.718.629a4.58 4.58 0 0 1 1.923 1.793c.481.777.721 1.701.721 2.773zm-5.343-2.7c-.542 0-.998.154-1.368.462-.357.308-.586.727-.684 1.257h4.105c-.099-.53-.333-.949-.703-1.257-.357-.308-.807-.462-1.35-.462zm7.702-6.027h3.513v13.719h-3.513V4.059zm6.536 0h3.513v13.719h-3.513V4.059z"/>
            <path fill="#ff6b09" style="fill:var(--color2, #ff6b09)" d="M5.547 26.596v3.982h-.922v-1.633H2.816v1.633h-.922v-3.982h.922v1.57h1.809v-1.57h.922zm5.049 3.242v.74H7.513v-3.982h3.009v.74H8.428v.865h1.849v.717H8.428v.922h2.167zm1.758-3.242h.922v3.231h1.997v.751h-2.918v-3.982zm4.457 0h.922v3.231h1.997v.751h-2.918v-3.982zm4.457 0h.922v3.982h-.922v-3.982zm4.199 4.05c-.315 0-.62-.042-.916-.125a2.163 2.163 0 0 1-.705-.336l.313-.694c.171.125.374.226.609.302s.47.114.705.114c.262 0 .455-.038.58-.114.125-.08.188-.184.188-.313a.284.284 0 0 0-.114-.233.79.79 0 0 0-.284-.154 5.18 5.18 0 0 0-.466-.125c-.303-.072-.552-.144-.745-.216s-.36-.188-.501-.347c-.137-.159-.205-.372-.205-.637 0-.231.063-.44.188-.626.125-.19.313-.339.563-.449.254-.11.563-.165.927-.165.254 0 .502.03.745.091s.455.148.637.262l-.284.7a2.218 2.218 0 0 0-1.104-.313c-.258 0-.449.042-.575.125-.121.083-.182.193-.182.33s.07.239.21.307c.144.064.362.129.654.193.303.072.552.144.745.216s.358.186.495.341c.14.156.21.366.21.631 0 .228-.064.436-.193.626-.125.186-.315.334-.569.444s-.563.165-.927.165zm6.996-4.05v3.982h-.922v-1.633h-1.809v1.633h-.922v-3.982h.922v1.57h1.809v-1.57h.922z"/>
            <path fill="#111518" style="fill:var(--color1, #111518)" d="M40.148 29.838v.74h-3.083v-3.982h3.009v.74h-2.093v.865h1.849v.717h-1.849v.922h2.167zm5.409-3.242v3.982H44.8l-1.985-2.418v2.418h-.91v-3.982h.762l1.98 2.418v-2.418h.91zm4.657 1.928h.842v1.616c-.216.163-.467.288-.751.375s-.571.131-.859.131c-.413 0-.785-.087-1.115-.262a2.01 2.01 0 0 1-.779-.734c-.186-.315-.279-.669-.279-1.064s.093-.747.279-1.058c.19-.315.451-.559.785-.734a2.355 2.355 0 0 1 1.126-.267c.349 0 .666.059.95.176s.523.288.717.512l-.592.546a1.367 1.367 0 0 0-1.03-.449c-.254 0-.48.053-.677.159s-.351.256-.461.449c-.11.193-.165.415-.165.666 0 .247.055.466.165.66s.262.345.455.455c.197.106.421.159.671.159.266 0 .504-.057.717-.171v-1.166zm2.722-1.928h.922v3.231h1.997v.751h-2.918v-3.982zm4.458 0h.922v3.982h-.922v-3.982zm4.199 4.05c-.315 0-.62-.042-.916-.125a2.163 2.163 0 0 1-.705-.336l.313-.694c.171.125.374.226.609.302s.47.114.705.114c.262 0 .455-.038.58-.114.125-.08.188-.184.188-.313a.284.284 0 0 0-.114-.233.79.79 0 0 0-.284-.154 5.125 5.125 0 0 0-.467-.125c-.303-.072-.552-.144-.745-.216s-.36-.188-.501-.347c-.137-.159-.205-.372-.205-.637 0-.231.063-.44.188-.626.125-.19.313-.339.563-.449.254-.11.563-.165.927-.165.254 0 .503.03.745.091s.455.148.637.262l-.284.7a2.218 2.218 0 0 0-1.104-.313c-.258 0-.449.042-.575.125-.121.083-.182.193-.182.33s.07.239.211.307c.144.064.362.129.654.193.303.072.552.144.745.216s.358.186.495.341c.14.156.211.366.211.631 0 .228-.064.436-.193.626-.125.186-.315.334-.569.444s-.563.165-.927.165zm6.995-4.05v3.982h-.922v-1.633h-1.809v1.633h-.922v-3.982h.922v1.57h1.809v-1.57h.922zM74.263 14.949v2.829H63.872V4.836h10.15v2.829h-6.527v2.182h5.75v2.736h-5.75v2.367h6.767zM89.348 4.836v12.942h-3.014l-5.713-6.896v6.896h-3.587V4.836h3.014l5.713 6.896V4.836h3.587z"/>
            <path fill="#ff6b09" style="fill:var(--color2, #ff6b09)" d="M58.695 11.062c-.189-.423-.45-.84-.831-1.322-.962-1.209-1.255-3.905-1.258-3.931a.326.326 0 0 0-.225-.275.33.33 0 0 0-.345.094c-1.147 1.283-.665 3.265-.404 4.057.072.217.15.472.205.731.424 2.091-.394 3.038-.587 3.229-.186.052-.313.026-.43-.1-.404-.443-.538-1.894-.349-3.785a3.89 3.89 0 0 0-.026-1.054c-.399-2.324-1.86-3.815-2.233-4.338C51.189 2.855 51.084.337 51.081.315a.324.324 0 0 0-.508-.255c-1.708 1.16-1.561 3.956-1.323 5.518.055.362.163.731.349 1.196.662 1.665-.13 3.814-.137 3.834s-.013.036-.016.055c-.101.53-.271.847-.46.847a.205.205 0 0 1-.062-.01c-.231-.048-.352-.294-.355-.507-.013-2.757-2.78-3.685-2.809-3.694a.323.323 0 0 0-.345.097.32.32 0 0 0-.046.356c.033.068.137.365.065 1.416a12.072 12.072 0 0 1-.512 2.773 13.547 13.547 0 0 0-.548 4.276c.506 5.505 8.423 6.469 13.122 3.368a4.742 4.742 0 0 0 1.245-1.154c1.734-2.392.714-5.64-.046-7.366zm-12.043 5.259a.322.322 0 0 1-.306.339h-.02a.324.324 0 0 1-.326-.304c-.029-.472-.023-.966.013-1.503a.326.326 0 0 1 .652.045c-.036.511-.042.976-.013 1.422zm.16-2.864a.323.323 0 0 1-.323.284c-.013 0-.026 0-.042-.003a.327.327 0 0 1-.284-.359l.156-1.248a.328.328 0 0 1 .365-.281.326.326 0 0 1 .284.362l-.156 1.244zM56.49 4.422a.322.322 0 0 1-.272-.368c.02-.131.138-.804.458-1.142.123-.13.329-.137.461-.015s.138.327.015.457c-.135.143-.25.553-.289.798a.326.326 0 0 1-.372.27zM44.608 6.032c-.062-.24-.217-.637-.366-.766-.135-.118-.149-.322-.03-.456s.324-.148.46-.03c.351.305.535.963.568 1.092a.322.322 0 0 1-.235.393.327.327 0 0 1-.397-.232z"/>
        </symbol>
        <symbol id="phone" viewBox="0 0 32 32">
            <path fill="#ff6b09" style="fill:var(--color2, #ff6b09)" d="M4.657.003a1.969 1.969 0 0 0-1.392.678L.67 3.65c.004-.009-.01-.008-.084.101a.656.656 0 0 0-.09.184C-.56 7.437.148 11.289 1.872 14.953S6.347 22.123 9.505 25c3.158 2.877 6.721 5.128 10.119 6.244s6.692 1.102 9.133-.742a.536.536 0 0 0 .075-.068c.064-.067.066-.075.056-.065l.01-.013L31.48 27.4c.742-.849.682-2.184-.134-2.956l-6.126-5.799a1.965 1.965 0 0 0-2.84.138l-2.772 3.173c-2.25-.678-4.173-1.828-6.023-3.58s-3.132-3.637-3.993-5.905l2.771-3.173c.742-.849.683-2.184-.133-2.956L6.104.542A1.962 1.962 0 0 0 4.656.003h-.001zm.058 1.301c.19-.009.383.06.541.209l6.126 5.8a.788.788 0 0 1 .05 1.104l-3.063 3.504a.667.667 0 0 0-.124.665c.93 2.641 2.429 4.807 4.493 6.761s4.275 3.304 6.889 4.018a.612.612 0 0 0 .626-.193l3.064-3.505a.716.716 0 0 1 1.06-.051l6.127 5.8a.786.786 0 0 1 .049 1.103l-2.561 2.93c-2.003 1.497-4.826 1.581-7.986.542-3.173-1.043-6.617-3.202-9.666-5.98s-5.702-6.169-7.332-9.633C1.394 10.949.809 7.483 1.696 4.428l2.502-2.862a.736.736 0 0 1 .52-.261z"/>
        </symbol>
        <symbol id="left-arrow" viewBox="0 0 54 32">
            <path fill="#ff6b09" style="fill:var(--color1, #ff6b09)" d="M52 14a2 2 0 1 1 0 4v-4zM.586 17.414C.224 17.052 0 16.552 0 16s.224-1.052.586-1.414L13.314 1.858a2 2 0 0 1 2.825 2.829l.001-.001L4.828 16l11.314 11.314a2 2 0 1 1-2.827 2.829l-.001-.001L.586 17.414zM52 18H2v-4h50v4z"/>
        </symbol>
        <symbol id="right-arrow" viewBox="0 0 54 32">
            <path fill="#ff6b09" style="fill:var(--color1, #ff6b09)" d="M2 14a2 2 0 1 0 0 4v-4zm51.414 3.414c.362-.362.586-.862.586-1.414s-.224-1.052-.586-1.414L40.686 1.858a2 2 0 1 0-2.829 2.827l.001.001L49.172 16 37.858 27.314a2 2 0 0 0 2.829 2.827l-.001.001 12.728-12.728zM2 18h50v-4H2v4z"/>
        </symbol>
        <symbol id="icon-email-black" viewBox="0 0 32 32">
            <path d="M26.671 5.334h-21.337c-1.467 0-2.653 1.2-2.653 2.667l-0.014 16.003c0 1.467 1.2 2.667 2.667 2.667h21.337c1.467 0 2.667-1.2 2.667-2.667v-16.003c0-1.467-1.2-2.667-2.667-2.667zM26.137 11.003l-9.427 5.893c-0.201 0.126-0.446 0.2-0.708 0.2s-0.506-0.075-0.713-0.204l0.006 0.003-9.427-5.893c-0.336-0.201-0.557-0.562-0.557-0.975 0-0.626 0.507-1.133 1.133-1.133 0.233 0 0.449 0.070 0.629 0.19l-0.004-0.003 8.935 5.587 8.935-5.588c0.176-0.118 0.392-0.188 0.625-0.188 0.626 0 1.133 0.507 1.133 1.133 0 0.413-0.221 0.775-0.552 0.973l-0.005 0.003z"></path>
        </symbol>
        <symbol id="icon-person-black" viewBox="0 0 32 32">
            <path d="M16.003 16.003c2.946 0 5.334-2.388 5.334-5.334s-2.388-5.334-5.334-5.334v0c-2.946 0-5.334 2.388-5.334 5.334s2.388 5.334 5.334 5.334v0zM16.003 18.67c-3.561 0-10.668 1.787-10.668 5.334v1.334c0 0.733 0.599 1.334 1.334 1.334h18.67c0.733 0 1.334-0.601 1.334-1.334v-1.334c0-3.547-7.109-5.334-10.668-5.334z"></path>
        </symbol>
        <symbol id="icon-phone-black" viewBox="0 0 32 32">
            <path d="M24.886 19.777l-3.268-0.373c-0.090-0.011-0.194-0.018-0.3-0.018-0.707 0-1.347 0.287-1.811 0.75l-2.368 2.368c-3.67-1.894-6.586-4.811-8.429-8.373l-0.051-0.108 2.383-2.377c0.463-0.463 0.75-1.104 0.75-1.811 0-0.106-0.006-0.21-0.019-0.312l0.001 0.012-0.373-3.243c-0.155-1.288-1.241-2.276-2.557-2.276-0.001 0-0.002 0-0.003 0h-2.226c-1.454 0-2.664 1.209-2.575 2.662 0.683 10.988 9.472 19.765 20.448 20.448 1.453 0.089 2.664-1.12 2.664-2.575v-2.226c0-0.004 0-0.008 0-0.012 0-1.308-0.985-2.386-2.253-2.533l-0.012-0.001z"></path>
        </symbol>
    </defs>
</svg>