<svg aria-hidden="true" style="position: absolute; width: 0; height: 0; overflow: hidden;" version="1.1" xmlns="http://www.w3.org/2000/svg" xmlns:xlink="http://www.w3.org/1999/xlink">
<defs>
<symbol id="icon-Advantages-1" viewBox="0 0 31 32">
<path fill="#ff6b09" style="fill: var(--color1, #ff6b09)" d="M7.954 23.275h12.363c0.061-1.41-0.040-3.749-0.907-4.863l-0.031-0.040-1.894-0.951c0.041-0.139 0.062-0.266 0.070-0.359 0.009-0.112-0.006-0.218-0.046-0.313-0.313-0.748-0.974-1.141-1.338-1.309 0.111-0.223 0.182-0.463 0.217-0.708 0.211-0.060 0.372-0.226 0.425-0.435l0.001-0.004 0.221-0.898c0.012-0.044 0.018-0.095 0.018-0.148 0-0.116-0.033-0.225-0.089-0.317l0.002 0.003c-0.037-0.060-0.082-0.111-0.135-0.153l-0.001-0.001c0.623-1.416-0.421-2.751-0.478-2.822-1.131-1.222-2.559-0.994-2.635-0.98-2.062 0.431-2.857 2.012-2.408 3.864-0.098 0.107-0.157 0.251-0.157 0.408 0 0.052 0.006 0.102 0.019 0.15l-0.001-0.004 0.222 0.899c0.054 0.216 0.218 0.379 0.423 0.437 0.066 0.456 0.256 0.86 0.534 1.185l-0.003-0.003v0.712c-2.958 1.515-1.084 0.548-3.454 1.748-0.005 0.022-1.112 1.199-0.948 4.689l0.010 0.213zM19.887 22.827h-2.035v-0.855l1.346-3.081c0.674 1.119 0.699 3.256 0.689 3.936zM17.11 17.024c-0.078 0.902-0.573 0.63-0.879 1.324-0.24-0.264-0.312-0.581-0.248-0.92 0.117-0.622-0.263-0.807-0.169-1.461l0.014-0.015v-0.002c0.008-0.009 0.083-0.098 0.105-0.126 0.805 0.351 1.193 1.003 1.177 1.2zM12.792 16.315c0.366 0.258 0.821 0.413 1.312 0.413 0.47 0 0.906-0.141 1.269-0.383l-0.008 0.005c0.051 0.514 0.252 0.617 0.181 0.995-0.012 0.059-0.020 0.13-0.025 0.203l-0 0.005-1.386 1.562-1.771-1.997 0.428-0.223v-0.579zM12.235 14.404v-2.388c0.215-0.399 0.51-0.688 0.875-0.862 0.979 0.554 2.105 1.38 2.86 2.212-0.001 1.059 0.003 1.062-0.004 1.149l-0.001 0.006c-0.059 0.962-0.849 1.759-1.864 1.759-0.986 0-1.804-0.774-1.864-1.768-0.002-0.029-0.004-0.063-0.004-0.097 0-0.004 0-0.007 0-0.011v0.001zM11.959 17.334l2.177 2.454 1.462-1.647c0.033 0.096 0.080 0.187 0.134 0.275l-1.595 1.995-2.379-2.975 0.202-0.102zM16.416 14.044v-0.691l0.166-0.191c0.009 0.35 0.047-0.063-0.166 0.882zM13.799 9.416c0.088 0.006 1.276-0.181 2.215 0.833 0.037 0.046 0.801 1.031 0.494 2.108-0.105-0.479-0.288-1.093-0.578-1.386l-0.316 0.315c0.286 0.289 0.474 1.171 0.545 1.628-1.311-1.372-3.002-2.24-3.025-2.255-0.085 0.053-0.801 0.189-1.32 1.199l-0.025 0.048v0.742l-0.066 0.001c-0.331-1.595 0.302-2.861 2.076-3.233zM11.677 13.109l0.113 0.456v0.479l-0.187-0.756c-0.027-0.113 0.056-0.156 0.074-0.178zM11.349 17.64l2.787 3.486 1.886-2.358c0.205 0.184 0.304 0.21 0.739 0.433l-0.147-0.498c-0.037-0.126 0.11-0.329 0.199-0.422 0.2-0.11 0.365-0.262 0.485-0.446l0.003-0.005 1.538 0.772-1.431 3.277v0.948h-6.544v-0.948l-1.432-3.277 1.917-0.962zM9.073 18.893l1.346 3.080v0.854h-2.035c-0.010-0.68 0.015-2.815 0.689-3.934z"></path>
<path fill="none" stroke="#ff6b09" style="stroke: var(--color1, #ff6b09)" stroke-linejoin="miter" stroke-linecap="butt" stroke-miterlimit="4" stroke-width="0.6154" d="M31.011 4.616v-4.308h-30.703v31.387h30.703v-4.308"></path>
</symbol>
<symbol id="icon-Advantages-2" viewBox="0 0 31 32">
<path fill="#ff6b09" style="fill: var(--color1, #ff6b09)" d="M20.408 8.558h-7.117c-0.464 0.001-0.84 0.376-0.84 0.84v2.946l-5.287 2.219c-0.063 0.027-0.106 0.088-0.106 0.159 0 0.062 0.033 0.117 0.083 0.147l0.001 0 0.674 0.403v4.301c-0.348 0.082-0.603 0.389-0.603 0.756v0.415c0 0.095 0.077 0.172 0.172 0.172h1.207c0.095 0 0.172-0.077 0.172-0.172v0-0.415c0-0.369-0.259-0.677-0.604-0.756v-4.095l0.533 0.319c-0.016 0.123-0.002-0.214-0.008 2.002 0 0.729 1.866 1.119 3.765 1.141v3.356c0 0.463 0.376 0.839 0.839 0.839 0 0 0 0 0.001 0h7.117c0.463-0.001 0.839-0.376 0.839-0.839v-0c0 0.023-0.001-0.711 0-12.899 0-0.457-0.378-0.84-0.839-0.84zM8.421 20.33v0.242h-0.863v-0.242c0-0.238 0.193-0.433 0.431-0.433 0.238 0 0.433 0.194 0.433 0.433zM20.408 22.791h-7.117c-0.171 0-0.322-0.086-0.411-0.218-0.053-0.077-0.085-0.173-0.085-0.276 0-0 0-0.001 0-0.001v0-1.163h8.106v1.164c0 0.27-0.225 0.494-0.494 0.494zM20.902 20.79h-8.106v-1.847c0.927-0.010 3.767-0.215 3.767-1.142-0.001-1.392 0.002-1.957-0.004-2.005l1.546-0.926c0.050-0.031 0.083-0.085 0.083-0.148 0-0.071-0.043-0.132-0.104-0.158l-0.001-0-5.287-2.219v-1.438h8.106v9.884zM12.624 16.657c-0.955 0-2.794 0.123-3.593 0.645 0.005-1.595-0.055-1.492 0.141-1.627 0.496-0.365 1.916-0.62 3.451-0.62 0.67 0 3.595 0.184 3.595 0.803v1.444c-0.806-0.526-2.636-0.645-3.595-0.645zM12.796 9.398c0-0.273 0.222-0.495 0.495-0.495h7.117c0.273 0 0.494 0.225 0.494 0.495v1.163h-8.106v-1.163zM12.624 12.645l5.012 2.104-1.242 0.743c-0.66-0.655-2.845-0.782-3.77-0.782s-3.111 0.127-3.77 0.782l-1.242-0.743 5.013-2.104zM9.031 17.801c0-0.279 1.234-0.799 3.593-0.799 2.36 0 3.595 0.52 3.595 0.799s-1.235 0.799-3.595 0.799c-2.359 0-3.593-0.52-3.593-0.799z"></path>
<path fill="#ff6b09" style="fill: var(--color1, #ff6b09)" d="M16.85 21.393c-0.314 0-0.569 0.255-0.569 0.569s0.255 0.57 0.569 0.57 0.569-0.255 0.569-0.57c0-0.314-0.255-0.569-0.569-0.569zM16.85 22.188c-0.118-0.008-0.211-0.106-0.211-0.225s0.093-0.217 0.21-0.225l0.001-0c0.121 0.005 0.217 0.104 0.217 0.225s-0.096 0.221-0.216 0.225h-0zM17.506 9.561h-1.314v0.344h1.314v-0.344z"></path>
<path fill="none" stroke="#ff6b09" style="stroke: var(--color1, #ff6b09)" stroke-linejoin="miter" stroke-linecap="butt" stroke-miterlimit="4" stroke-width="0.6154" d="M31.080 4.616v-4.308h-30.772v31.387h30.772v-4.308"></path>
</symbol>
<symbol id="icon-Advantages-3" viewBox="0 0 31 32">
<path fill="#ff6b09" style="fill: var(--color1, #ff6b09)" d="M7.944 14.959c0 0.165-0.25 0.165-0.25 0 0-3.502 2.841-6.343 6.343-6.343 3.504 0 6.343 2.841 6.343 6.343 0 0.165-0.249 0.165-0.249 0 0-2.367-3.89-2.369-3.89 0 0 0.165-0.256 0.165-0.256 0 0-2.361-3.896-2.361-3.896 0 0 0.165-0.256 0.165-0.256 0 0-2.357-3.889-2.373-3.889 0zM11.855 14.040c0.068-1.363 0.282-2.585 0.593-3.517 0.249-0.742 0.563-1.304 0.919-1.62-2.674 0.292-4.84 2.32-5.324 4.949 0.921-1.328 3.047-1.222 3.811 0.189zM15.965 13.978c-0.069-1.31-0.277-2.482-0.577-3.376-0.772-2.314-1.932-2.314-2.704 0-0.299 0.894-0.506 2.066-0.576 3.377 0.831-1.412 3.026-1.412 3.857 0zM20.029 13.851c-0.482-2.629-2.648-4.657-5.323-4.949 0.358 0.316 0.671 0.879 0.919 1.62 0.311 0.933 0.526 2.155 0.593 3.517 0.768-1.418 2.901-1.502 3.811-0.189zM13.204 17.861v-1.288c-0.232 0.154-0.415 0.392-0.415 0.683 0 0.283 0.186 0.47 0.415 0.605zM13.454 18.262c-0.445-0.204-0.913-0.442-0.913-1.005 0-0.581 0.442-0.871 0.913-1.089v2.094zM14.869 19.805v1.303c0.235-0.156 0.419-0.395 0.419-0.686 0-0.286-0.189-0.479-0.419-0.617zM14.62 19.403c0.446 0.206 0.918 0.452 0.918 1.018 0 0.582-0.445 0.873-0.918 1.089v-2.107z"></path>
<path fill="#ff6b09" style="fill: var(--color1, #ff6b09)" d="M14.869 15.107c1.024 0.237 2.077 1.003 2.077 2.149 0 0.981-1.658 0.945-1.658 0 0-0.292-0.184-0.531-0.419-0.686v1.833c0.948 0.31 2.080 0.865 2.080 2.019 0 1.147-1.053 1.912-2.080 2.147-0.004 1.091-1.662 1.090-1.665-0.002-0.584-0.135-1.092-0.407-1.459-0.768-0.385-0.381-0.612-0.858-0.612-1.378 0-0.966 1.656-0.966 1.656 0 0 0.289 0.182 0.527 0.415 0.682v-1.832c-0.94-0.304-2.079-0.876-2.079-2.019 0-1.147 1.053-1.912 2.079-2.147 0.004-1.091 1.662-1.090 1.665 0.002zM13.454 15.11v0.199c-0.975 0.193-2.080 0.818-2.080 1.944 0 1.083 1.213 1.568 2.080 1.836v2.42c-0.469-0.214-0.914-0.503-0.914-1.087 0-0.638-1.159-0.638-1.159 0 0 0.451 0.201 0.867 0.539 1.199 0.43 0.425 0.951 0.628 1.533 0.743v0.201c0 0.768 1.167 0.768 1.167 0v-0.199c0.978-0.195 2.078-0.819 2.078-1.944 0-1.093-1.21-1.563-2.078-1.837v-2.419c0.47 0.214 0.918 0.503 0.918 1.090 0 0.622 1.157 0.647 1.157 0 0-1.125-1.099-1.751-2.075-1.945v-0.201c0-0.768-1.166-0.768-1.166 0z"></path>
<path fill="none" stroke="#ff6b09" style="stroke: var(--color1, #ff6b09)" stroke-linejoin="miter" stroke-linecap="butt" stroke-miterlimit="4" stroke-width="0.6154" d="M31.080 4.616v-4.308h-30.772v31.387h30.772v-4.308"></path>
</symbol>
<symbol id="icon-ampfire" viewBox="0 0 23 32">
<path fill="#ff6b09" style="fill: var(--color1, #ff6b09)" d="M21.915 16.593c-0.284-0.636-0.675-1.261-1.247-1.984-1.442-1.813-1.883-5.856-1.888-5.895-0.022-0.194-0.155-0.353-0.334-0.411l-0.003-0.001c-0.045-0.015-0.096-0.023-0.149-0.023-0.146 0-0.277 0.063-0.368 0.163l-0 0c-1.722 1.924-0.997 4.896-0.607 6.084 0.108 0.325 0.225 0.708 0.309 1.095 0.635 3.137-0.593 4.558-0.881 4.844-0.278 0.078-0.469 0.039-0.645-0.149-0.606-0.665-0.806-2.842-0.523-5.678 0.023-0.194 0.036-0.419 0.036-0.647 0-0.33-0.027-0.653-0.080-0.968l0.005 0.034c-0.597-3.486-2.79-5.723-3.349-6.507-1.535-2.269-1.691-6.046-1.696-6.080-0.011-0.261-0.225-0.468-0.488-0.468-0.102 0-0.198 0.032-0.276 0.086l0.002-0.001c-2.562 1.742-2.341 5.935-1.984 8.277 0.082 0.543 0.243 1.095 0.523 1.794 0.992 2.496-0.196 5.721-0.206 5.749-0.011 0.030-0.019 0.053-0.025 0.083-0.151 0.795-0.405 1.269-0.689 1.269-0.033-0-0.065-0.005-0.095-0.015l0.002 0.001c-0.348-0.073-0.528-0.441-0.533-0.761-0.019-4.137-4.171-5.527-4.213-5.542-0.045-0.015-0.096-0.024-0.15-0.024-0.147 0-0.279 0.065-0.368 0.168l-0.001 0.001c-0.075 0.084-0.121 0.195-0.121 0.317 0 0.079 0.019 0.153 0.053 0.219l-0.001-0.003c0.049 0.102 0.206 0.548 0.098 2.124-0.102 1.521-0.376 2.939-0.803 4.288l0.035-0.128c-0.987 3.22-0.831 6.27-0.821 6.415 0.759 8.257 12.636 9.705 19.683 5.052 0.772-0.509 1.403-1.090 1.867-1.73 2.603-3.588 1.072-8.461-0.067-11.051zM3.85 24.48c0 0.008 0.001 0.016 0.001 0.025 0 0.259-0.203 0.47-0.458 0.484l-0.001 0h-0.030c-0.001 0-0.002 0-0.003 0-0.258 0-0.469-0.201-0.485-0.454l-0-0.001c-0.045-0.708-0.034-1.451 0.019-2.255 0.023-0.254 0.234-0.451 0.492-0.451 0.011 0 0.022 0 0.032 0.001l-0.001-0c0.256 0.017 0.456 0.229 0.456 0.487 0 0.011-0 0.022-0.001 0.032l0-0.001c-0.053 0.766-0.064 1.465-0.020 2.133zM4.090 20.185c-0.030 0.242-0.234 0.427-0.482 0.427-0.001 0-0.002 0-0.003 0h0c-0.019 0-0.039 0-0.064-0.005-0.242-0.031-0.427-0.236-0.427-0.485 0-0.019 0.001-0.037 0.003-0.055l-0 0.002 0.235-1.872c0.035-0.241 0.241-0.425 0.489-0.425 0.021 0 0.041 0.001 0.061 0.004l-0.002-0c0.269 0.034 0.459 0.276 0.426 0.543l-0.235 1.867zM18.609 6.634c-0.236-0.036-0.415-0.237-0.415-0.48 0-0.026 0.002-0.051 0.006-0.075l-0 0.003c0.031-0.197 0.207-1.205 0.687-1.713 0.090-0.095 0.216-0.153 0.356-0.153 0.13 0 0.247 0.050 0.335 0.132l-0-0c0.196 0.182 0.207 0.49 0.021 0.685-0.203 0.214-0.375 0.829-0.433 1.197-0.039 0.234-0.24 0.411-0.482 0.411-0.027 0-0.053-0.002-0.078-0.006l0.003 0zM0.785 9.049c-0.094-0.361-0.326-0.956-0.549-1.15-0.102-0.089-0.167-0.219-0.167-0.365 0-0.123 0.046-0.235 0.121-0.32l-0 0c0.090-0.102 0.222-0.166 0.368-0.166 0.124 0 0.237 0.046 0.323 0.121l-0.001-0c0.527 0.458 0.802 1.444 0.852 1.637 0.010 0.036 0.015 0.077 0.015 0.12 0 0.226-0.155 0.416-0.364 0.469l-0.003 0.001c-0.036 0.010-0.078 0.015-0.121 0.015-0.226 0-0.416-0.153-0.473-0.361l-0.001-0.003z"></path>
</symbol>
</defs>
</svg>
