<svg aria-hidden="true" style="position: absolute; width: 0; height: 0; overflow: hidden;" version="1.1" xmlns="http://www.w3.org/2000/svg" xmlns:xlink="http://www.w3.org/1999/xlink">
    <defs>
        <symbol id="icon-Advantages-1" viewBox="0 0 31 32">
            <path fill="#ff6b09" style="fill: var(--color1, #ff6b09)" d="M7.954 23.275h12.363c0.061-1.41-0.040-3.749-0.907-4.863l-0.031-0.040-1.894-0.951c0.041-0.139 0.062-0.266 0.070-0.359 0.009-0.112-0.006-0.218-0.046-0.313-0.313-0.748-0.974-1.141-1.338-1.309 0.111-0.223 0.182-0.463 0.217-0.708 0.211-0.060 0.372-0.226 0.425-0.435l0.001-0.004 0.221-0.898c0.012-0.044 0.018-0.095 0.018-0.148 0-0.116-0.033-0.225-0.089-0.317l0.002 0.003c-0.037-0.060-0.082-0.111-0.135-0.153l-0.001-0.001c0.623-1.416-0.421-2.751-0.478-2.822-1.131-1.222-2.559-0.994-2.635-0.98-2.062 0.431-2.857 2.012-2.408 3.864-0.098 0.107-0.157 0.251-0.157 0.408 0 0.052 0.006 0.102 0.019 0.15l-0.001-0.004 0.222 0.899c0.054 0.216 0.218 0.379 0.423 0.437 0.066 0.456 0.256 0.86 0.534 1.185l-0.003-0.003v0.712c-2.958 1.515-1.084 0.548-3.454 1.748-0.005 0.022-1.112 1.199-0.948 4.689l0.010 0.213zM19.887 22.827h-2.035v-0.855l1.346-3.081c0.674 1.119 0.699 3.256 0.689 3.936zM17.11 17.024c-0.078 0.902-0.573 0.63-0.879 1.324-0.24-0.264-0.312-0.581-0.248-0.92 0.117-0.622-0.263-0.807-0.169-1.461l0.014-0.015v-0.002c0.008-0.009 0.083-0.098 0.105-0.126 0.805 0.351 1.193 1.003 1.177 1.2zM12.792 16.315c0.366 0.258 0.821 0.413 1.312 0.413 0.47 0 0.906-0.141 1.269-0.383l-0.008 0.005c0.051 0.514 0.252 0.617 0.181 0.995-0.012 0.059-0.020 0.13-0.025 0.203l-0 0.005-1.386 1.562-1.771-1.997 0.428-0.223v-0.579zM12.235 14.404v-2.388c0.215-0.399 0.51-0.688 0.875-0.862 0.979 0.554 2.105 1.38 2.86 2.212-0.001 1.059 0.003 1.062-0.004 1.149l-0.001 0.006c-0.059 0.962-0.849 1.759-1.864 1.759-0.986 0-1.804-0.774-1.864-1.768-0.002-0.029-0.004-0.063-0.004-0.097 0-0.004 0-0.007 0-0.011v0.001zM11.959 17.334l2.177 2.454 1.462-1.647c0.033 0.096 0.080 0.187 0.134 0.275l-1.595 1.995-2.379-2.975 0.202-0.102zM16.416 14.044v-0.691l0.166-0.191c0.009 0.35 0.047-0.063-0.166 0.882zM13.799 9.416c0.088 0.006 1.276-0.181 2.215 0.833 0.037 0.046 0.801 1.031 0.494 2.108-0.105-0.479-0.288-1.093-0.578-1.386l-0.316 0.315c0.286 0.289 0.474 1.171 0.545 1.628-1.311-1.372-3.002-2.24-3.025-2.255-0.085 0.053-0.801 0.189-1.32 1.199l-0.025 0.048v0.742l-0.066 0.001c-0.331-1.595 0.302-2.861 2.076-3.233zM11.677 13.109l0.113 0.456v0.479l-0.187-0.756c-0.027-0.113 0.056-0.156 0.074-0.178zM11.349 17.64l2.787 3.486 1.886-2.358c0.205 0.184 0.304 0.21 0.739 0.433l-0.147-0.498c-0.037-0.126 0.11-0.329 0.199-0.422 0.2-0.11 0.365-0.262 0.485-0.446l0.003-0.005 1.538 0.772-1.431 3.277v0.948h-6.544v-0.948l-1.432-3.277 1.917-0.962zM9.073 18.893l1.346 3.080v0.854h-2.035c-0.010-0.68 0.015-2.815 0.689-3.934z"></path>
            <path fill="none" stroke="#ff6b09" style="stroke: var(--color1, #ff6b09)" stroke-linejoin="miter" stroke-linecap="butt" stroke-miterlimit="4" stroke-width="0.6154" d="M31.011 4.616v-4.308h-30.703v31.387h30.703v-4.308"></path>
        </symbol>
        <symbol id="icon-Advantages-2" viewBox="0 0 31 32">
            <path fill="#ff6b09" style="fill: var(--color1, #ff6b09)" d="M20.408 8.558h-7.117c-0.464 0.001-0.84 0.376-0.84 0.84v2.946l-5.287 2.219c-0.063 0.027-0.106 0.088-0.106 0.159 0 0.062 0.033 0.117 0.083 0.147l0.001 0 0.674 0.403v4.301c-0.348 0.082-0.603 0.389-0.603 0.756v0.415c0 0.095 0.077 0.172 0.172 0.172h1.207c0.095 0 0.172-0.077 0.172-0.172v0-0.415c0-0.369-0.259-0.677-0.604-0.756v-4.095l0.533 0.319c-0.016 0.123-0.002-0.214-0.008 2.002 0 0.729 1.866 1.119 3.765 1.141v3.356c0 0.463 0.376 0.839 0.839 0.839 0 0 0 0 0.001 0h7.117c0.463-0.001 0.839-0.376 0.839-0.839v-0c0 0.023-0.001-0.711 0-12.899 0-0.457-0.378-0.84-0.839-0.84zM8.421 20.33v0.242h-0.863v-0.242c0-0.238 0.193-0.433 0.431-0.433 0.238 0 0.433 0.194 0.433 0.433zM20.408 22.791h-7.117c-0.171 0-0.322-0.086-0.411-0.218-0.053-0.077-0.085-0.173-0.085-0.276 0-0 0-0.001 0-0.001v0-1.163h8.106v1.164c0 0.27-0.225 0.494-0.494 0.494zM20.902 20.79h-8.106v-1.847c0.927-0.010 3.767-0.215 3.767-1.142-0.001-1.392 0.002-1.957-0.004-2.005l1.546-0.926c0.050-0.031 0.083-0.085 0.083-0.148 0-0.071-0.043-0.132-0.104-0.158l-0.001-0-5.287-2.219v-1.438h8.106v9.884zM12.624 16.657c-0.955 0-2.794 0.123-3.593 0.645 0.005-1.595-0.055-1.492 0.141-1.627 0.496-0.365 1.916-0.62 3.451-0.62 0.67 0 3.595 0.184 3.595 0.803v1.444c-0.806-0.526-2.636-0.645-3.595-0.645zM12.796 9.398c0-0.273 0.222-0.495 0.495-0.495h7.117c0.273 0 0.494 0.225 0.494 0.495v1.163h-8.106v-1.163zM12.624 12.645l5.012 2.104-1.242 0.743c-0.66-0.655-2.845-0.782-3.77-0.782s-3.111 0.127-3.77 0.782l-1.242-0.743 5.013-2.104zM9.031 17.801c0-0.279 1.234-0.799 3.593-0.799 2.36 0 3.595 0.52 3.595 0.799s-1.235 0.799-3.595 0.799c-2.359 0-3.593-0.52-3.593-0.799z"></path>
            <path fill="#ff6b09" style="fill: var(--color1, #ff6b09)" d="M16.85 21.393c-0.314 0-0.569 0.255-0.569 0.569s0.255 0.57 0.569 0.57 0.569-0.255 0.569-0.57c0-0.314-0.255-0.569-0.569-0.569zM16.85 22.188c-0.118-0.008-0.211-0.106-0.211-0.225s0.093-0.217 0.21-0.225l0.001-0c0.121 0.005 0.217 0.104 0.217 0.225s-0.096 0.221-0.216 0.225h-0zM17.506 9.561h-1.314v0.344h1.314v-0.344z"></path>
            <path fill="none" stroke="#ff6b09" style="stroke: var(--color1, #ff6b09)" stroke-linejoin="miter" stroke-linecap="butt" stroke-miterlimit="4" stroke-width="0.6154" d="M31.080 4.616v-4.308h-30.772v31.387h30.772v-4.308"></path>
        </symbol>
        <symbol id="icon-Advantages-3" viewBox="0 0 31 32">
            <path fill="#ff6b09" style="fill: var(--color1, #ff6b09)" d="M7.944 14.959c0 0.165-0.25 0.165-0.25 0 0-3.502 2.841-6.343 6.343-6.343 3.504 0 6.343 2.841 6.343 6.343 0 0.165-0.249 0.165-0.249 0 0-2.367-3.89-2.369-3.89 0 0 0.165-0.256 0.165-0.256 0 0-2.361-3.896-2.361-3.896 0 0 0.165-0.256 0.165-0.256 0 0-2.357-3.889-2.373-3.889 0zM11.855 14.040c0.068-1.363 0.282-2.585 0.593-3.517 0.249-0.742 0.563-1.304 0.919-1.62-2.674 0.292-4.84 2.32-5.324 4.949 0.921-1.328 3.047-1.222 3.811 0.189zM15.965 13.978c-0.069-1.31-0.277-2.482-0.577-3.376-0.772-2.314-1.932-2.314-2.704 0-0.299 0.894-0.506 2.066-0.576 3.377 0.831-1.412 3.026-1.412 3.857 0zM20.029 13.851c-0.482-2.629-2.648-4.657-5.323-4.949 0.358 0.316 0.671 0.879 0.919 1.62 0.311 0.933 0.526 2.155 0.593 3.517 0.768-1.418 2.901-1.502 3.811-0.189zM13.204 17.861v-1.288c-0.232 0.154-0.415 0.392-0.415 0.683 0 0.283 0.186 0.47 0.415 0.605zM13.454 18.262c-0.445-0.204-0.913-0.442-0.913-1.005 0-0.581 0.442-0.871 0.913-1.089v2.094zM14.869 19.805v1.303c0.235-0.156 0.419-0.395 0.419-0.686 0-0.286-0.189-0.479-0.419-0.617zM14.62 19.403c0.446 0.206 0.918 0.452 0.918 1.018 0 0.582-0.445 0.873-0.918 1.089v-2.107z"></path>
            <path fill="#ff6b09" style="fill: var(--color1, #ff6b09)" d="M14.869 15.107c1.024 0.237 2.077 1.003 2.077 2.149 0 0.981-1.658 0.945-1.658 0 0-0.292-0.184-0.531-0.419-0.686v1.833c0.948 0.31 2.080 0.865 2.080 2.019 0 1.147-1.053 1.912-2.080 2.147-0.004 1.091-1.662 1.090-1.665-0.002-0.584-0.135-1.092-0.407-1.459-0.768-0.385-0.381-0.612-0.858-0.612-1.378 0-0.966 1.656-0.966 1.656 0 0 0.289 0.182 0.527 0.415 0.682v-1.832c-0.94-0.304-2.079-0.876-2.079-2.019 0-1.147 1.053-1.912 2.079-2.147 0.004-1.091 1.662-1.090 1.665 0.002zM13.454 15.11v0.199c-0.975 0.193-2.080 0.818-2.080 1.944 0 1.083 1.213 1.568 2.080 1.836v2.42c-0.469-0.214-0.914-0.503-0.914-1.087 0-0.638-1.159-0.638-1.159 0 0 0.451 0.201 0.867 0.539 1.199 0.43 0.425 0.951 0.628 1.533 0.743v0.201c0 0.768 1.167 0.768 1.167 0v-0.199c0.978-0.195 2.078-0.819 2.078-1.944 0-1.093-1.21-1.563-2.078-1.837v-2.419c0.47 0.214 0.918 0.503 0.918 1.090 0 0.622 1.157 0.647 1.157 0 0-1.125-1.099-1.751-2.075-1.945v-0.201c0-0.768-1.166-0.768-1.166 0z"></path>
            <path fill="none" stroke="#ff6b09" style="stroke: var(--color1, #ff6b09)" stroke-linejoin="miter" stroke-linecap="butt" stroke-miterlimit="4" stroke-width="0.6154" d="M31.080 4.616v-4.308h-30.772v31.387h30.772v-4.308"></path>
        </symbol>
        <symbol id="icon-ampfire" viewBox="0 0 23 32">
            <path fill="#ff6b09" style="fill: var(--color1, #ff6b09)" d="M21.915 16.593c-0.284-0.636-0.675-1.261-1.247-1.984-1.442-1.813-1.883-5.856-1.888-5.895-0.022-0.194-0.155-0.353-0.334-0.411l-0.003-0.001c-0.045-0.015-0.096-0.023-0.149-0.023-0.146 0-0.277 0.063-0.368 0.163l-0 0c-1.722 1.924-0.997 4.896-0.607 6.084 0.108 0.325 0.225 0.708 0.309 1.095 0.635 3.137-0.593 4.558-0.881 4.844-0.278 0.078-0.469 0.039-0.645-0.149-0.606-0.665-0.806-2.842-0.523-5.678 0.023-0.194 0.036-0.419 0.036-0.647 0-0.33-0.027-0.653-0.080-0.968l0.005 0.034c-0.597-3.486-2.79-5.723-3.349-6.507-1.535-2.269-1.691-6.046-1.696-6.080-0.011-0.261-0.225-0.468-0.488-0.468-0.102 0-0.198 0.032-0.276 0.086l0.002-0.001c-2.562 1.742-2.341 5.935-1.984 8.277 0.082 0.543 0.243 1.095 0.523 1.794 0.992 2.496-0.196 5.721-0.206 5.749-0.011 0.030-0.019 0.053-0.025 0.083-0.151 0.795-0.405 1.269-0.689 1.269-0.033-0-0.065-0.005-0.095-0.015l0.002 0.001c-0.348-0.073-0.528-0.441-0.533-0.761-0.019-4.137-4.171-5.527-4.213-5.542-0.045-0.015-0.096-0.024-0.15-0.024-0.147 0-0.279 0.065-0.368 0.168l-0.001 0.001c-0.075 0.084-0.121 0.195-0.121 0.317 0 0.079 0.019 0.153 0.053 0.219l-0.001-0.003c0.049 0.102 0.206 0.548 0.098 2.124-0.102 1.521-0.376 2.939-0.803 4.288l0.035-0.128c-0.987 3.22-0.831 6.27-0.821 6.415 0.759 8.257 12.636 9.705 19.683 5.052 0.772-0.509 1.403-1.090 1.867-1.73 2.603-3.588 1.072-8.461-0.067-11.051zM3.85 24.48c0 0.008 0.001 0.016 0.001 0.025 0 0.259-0.203 0.47-0.458 0.484l-0.001 0h-0.030c-0.001 0-0.002 0-0.003 0-0.258 0-0.469-0.201-0.485-0.454l-0-0.001c-0.045-0.708-0.034-1.451 0.019-2.255 0.023-0.254 0.234-0.451 0.492-0.451 0.011 0 0.022 0 0.032 0.001l-0.001-0c0.256 0.017 0.456 0.229 0.456 0.487 0 0.011-0 0.022-0.001 0.032l0-0.001c-0.053 0.766-0.064 1.465-0.020 2.133zM4.090 20.185c-0.030 0.242-0.234 0.427-0.482 0.427-0.001 0-0.002 0-0.003 0h0c-0.019 0-0.039 0-0.064-0.005-0.242-0.031-0.427-0.236-0.427-0.485 0-0.019 0.001-0.037 0.003-0.055l-0 0.002 0.235-1.872c0.035-0.241 0.241-0.425 0.489-0.425 0.021 0 0.041 0.001 0.061 0.004l-0.002-0c0.269 0.034 0.459 0.276 0.426 0.543l-0.235 1.867zM18.609 6.634c-0.236-0.036-0.415-0.237-0.415-0.48 0-0.026 0.002-0.051 0.006-0.075l-0 0.003c0.031-0.197 0.207-1.205 0.687-1.713 0.090-0.095 0.216-0.153 0.356-0.153 0.13 0 0.247 0.050 0.335 0.132l-0-0c0.196 0.182 0.207 0.49 0.021 0.685-0.203 0.214-0.375 0.829-0.433 1.197-0.039 0.234-0.24 0.411-0.482 0.411-0.027 0-0.053-0.002-0.078-0.006l0.003 0zM0.785 9.049c-0.094-0.361-0.326-0.956-0.549-1.15-0.102-0.089-0.167-0.219-0.167-0.365 0-0.123 0.046-0.235 0.121-0.32l-0 0c0.090-0.102 0.222-0.166 0.368-0.166 0.124 0 0.237 0.046 0.323 0.121l-0.001-0c0.527 0.458 0.802 1.444 0.852 1.637 0.010 0.036 0.015 0.077 0.015 0.12 0 0.226-0.155 0.416-0.364 0.469l-0.003 0.001c-0.036 0.010-0.078 0.015-0.121 0.015-0.226 0-0.416-0.153-0.473-0.361l-0.001-0.003z"></path>
        </symbol>
        <symbol id="icon-About" viewBox="0 0 19 15">
            <path fill="#ff6b09" style="fill:var(--color1, #ff6b09)" d="M17.018.71c-.733.311-1.436.691-2.106 1.115-1.349.842-2.582 1.845-3.739 2.915a40.408 40.408 0 0 0-3.25 3.413L6.529 9.78 1.79 3.039.001 7.746l6.409 7.255c.622-1.196 1.221-2.376 1.809-3.402.146-.261.299-.506.445-.756 0 0 .752-1.255.95-1.571a38 38 0 0 1 2.587-3.666c.943-1.168 1.967-2.283 3.129-3.263A13.97 13.97 0 0 1 17.182.997a10.543 10.543 0 0 1 2.104-.996 10.83 10.83 0 0 0-2.268.71z"/>
        </symbol>
        <symbol id="icon-campfire" viewBox="0 0 11 15">
            <path fill="#ff6b09" style="fill:var(--color1, #ff6b09)" d="M10.503 7.778a4.295 4.295 0 0 0-.598-.93c-.691-.85-.902-2.745-.905-2.764a.229.229 0 0 0-.162-.193.241.241 0 0 0-.248.066c-.825.902-.478 2.295-.291 2.852.052.152.108.332.148.514.305 1.47-.284 2.136-.422 2.27-.134.036-.225.018-.309-.07-.291-.311-.387-1.332-.251-2.661a2.66 2.66 0 0 0-.019-.741c-.287-1.634-1.338-2.682-1.605-3.05C5.105 2.007 5.03.237 5.028.221a.221.221 0 0 0-.129-.195.24.24 0 0 0-.237.016c-1.228.816-1.123 2.782-.952 3.88.04.255.117.514.251.841.476 1.17-.094 2.682-.098 2.695s-.009.025-.012.039c-.073.373-.195.595-.33.595a.155.155 0 0 1-.045-.007c-.166-.034-.253-.207-.255-.357-.009-1.939-1.999-2.591-2.02-2.598a.237.237 0 0 0-.248.068.22.22 0 0 0-.033.25c.023.048.098.257.047.995a8.357 8.357 0 0 1-.368 1.95A9.341 9.341 0 0 0 .205 11.4c.364 3.871 6.057 4.549 9.436 2.368.37-.239.673-.511.895-.811 1.247-1.682.513-3.966-.033-5.18zm-8.66 3.698a.23.23 0 0 1-.22.239h-.014a.23.23 0 0 1-.234-.214 8.165 8.165 0 0 1 .009-1.057.234.234 0 0 1 .251-.211.23.23 0 0 1 .218.243c-.026.359-.03.686-.009 1zm.115-2.014a.23.23 0 0 1-.232.2c-.009 0-.019 0-.03-.002a.23.23 0 0 1-.204-.252l.113-.877a.235.235 0 0 1 .262-.198.23.23 0 0 1 .204.255l-.113.875zM8.918 3.109a.229.229 0 0 1-.196-.259c.015-.092.099-.565.329-.803.088-.092.237-.096.331-.01s.099.23.011.321c-.097.101-.18.389-.208.561a.234.234 0 0 1-.267.19zM.373 4.241C.328 4.072.217 3.793.11 3.702c-.097-.083-.107-.226-.022-.321s.233-.104.331-.021c.253.215.385.677.408.768a.226.226 0 0 1-.169.276.235.235 0 0 1-.285-.163z"/>
        </symbol>

        <symbol id="icon-menu2"  viewBox="0 0 21 14" >
            <path d="M0 1H20.5"  stroke-width="2"/>
            <path d="M0 7H20.5"  stroke-width="2"/>
            <path d="M0 13H20.5"  stroke-width="2"/>
        </symbol>
        <symbol id="icon-modal-close-icon" viewBox="0 0 18 18" >
            <path d="M1 17L17 1"  stroke-width="2"/>
            <path d="M17 17L1 1"  stroke-width="2"/>
        </symbol>
        <symbol id="icon-mobile-logo-modal" viewBox="0 0 85 32">
            <path fill="#fff" style="fill: var(--color1, #fff)" d="M11.933 4.825v12.913h-3.548v-5.036h-4.838v5.036h-3.548v-12.913h3.548v4.851h4.838v-4.851h3.548z"></path>
            <path fill="#fff" style="fill: var(--color1, #fff)" d="M24.918 12.757c0 0.025-0.018 0.314-0.054 0.867h-7.060c0.143 0.516 0.418 0.916 0.824 1.199 0.418 0.271 0.938 0.406 1.559 0.406 0.466 0 0.866-0.068 1.2-0.203 0.346-0.135 0.693-0.357 1.039-0.664l1.792 1.919c-0.944 1.082-2.323 1.623-4.139 1.623-1.135 0-2.132-0.221-2.992-0.664s-1.529-1.058-2.007-1.845c-0.466-0.787-0.699-1.679-0.699-2.675 0-0.984 0.227-1.863 0.681-2.638 0.466-0.787 1.105-1.402 1.917-1.845s1.726-0.664 2.741-0.664c0.968 0 1.846 0.209 2.634 0.627 0.788 0.406 1.41 1.002 1.863 1.789 0.466 0.775 0.699 1.697 0.699 2.767zM19.739 10.064c-0.526 0-0.968 0.154-1.326 0.461-0.346 0.307-0.567 0.726-0.663 1.254h3.978c-0.096-0.529-0.323-0.947-0.681-1.254-0.346-0.307-0.782-0.461-1.308-0.461z"></path>
            <path fill="#fff" style="fill: var(--color1, #fff)" d="M27.204 4.050h3.404v13.688h-3.404v-13.688z"></path>
            <path fill="#fff" style="fill: var(--color1, #fff)" d="M33.538 4.050h3.404v13.688h-3.404v-13.688z"></path>
            <path fill="#ff6b09" style="fill: var(--color2, #ff6b09)" d="M3.003 27.011h0.864v3.733h-0.864v-3.733zM1.307 30.744h-0.864v-3.733h0.864v3.733zM3.067 29.214h-1.824v-0.731h1.824v0.731zM6.505 28.515h1.797v0.672h-1.797v-0.672zM6.569 30.051h2.032v0.693h-2.891v-3.733h2.821v0.693h-1.963v2.347zM10.248 30.744v-3.733h0.864v3.029h1.872v0.704h-2.736zM14.427 30.744v-3.733h0.864v3.029h1.872v0.704h-2.736zM18.606 30.744v-3.733h0.864v3.733h-0.864zM22.542 30.808c-0.299 0-0.585-0.039-0.859-0.117-0.274-0.082-0.494-0.187-0.661-0.315l0.293-0.651c0.16 0.114 0.348 0.208 0.565 0.283 0.22 0.071 0.443 0.107 0.667 0.107 0.171 0 0.308-0.016 0.411-0.048 0.107-0.036 0.185-0.084 0.235-0.144s0.075-0.13 0.075-0.208c0-0.1-0.039-0.178-0.117-0.235-0.078-0.060-0.181-0.108-0.309-0.144-0.128-0.039-0.27-0.075-0.427-0.107-0.153-0.036-0.308-0.078-0.464-0.128-0.153-0.050-0.293-0.114-0.421-0.192s-0.233-0.181-0.315-0.309c-0.078-0.128-0.117-0.292-0.117-0.491 0-0.213 0.057-0.407 0.171-0.581 0.117-0.178 0.292-0.318 0.523-0.421 0.235-0.107 0.528-0.16 0.88-0.16 0.235 0 0.466 0.028 0.693 0.085 0.228 0.053 0.428 0.135 0.603 0.245l-0.267 0.656c-0.174-0.1-0.348-0.172-0.523-0.219-0.174-0.050-0.345-0.075-0.512-0.075s-0.304 0.020-0.411 0.059c-0.107 0.039-0.183 0.091-0.229 0.155-0.046 0.060-0.069 0.132-0.069 0.213 0 0.096 0.039 0.174 0.117 0.235 0.078 0.057 0.181 0.103 0.309 0.139s0.268 0.071 0.421 0.107c0.156 0.036 0.311 0.076 0.464 0.123 0.156 0.046 0.299 0.108 0.427 0.187s0.231 0.181 0.309 0.309c0.082 0.128 0.123 0.29 0.123 0.485 0 0.21-0.059 0.402-0.176 0.576s-0.293 0.315-0.528 0.421c-0.231 0.107-0.524 0.16-0.88 0.16zM28.237 27.011h0.864v3.733h-0.864v-3.733zM26.541 30.744h-0.864v-3.733h0.864v3.733zM28.301 29.214h-1.824v-0.731h1.824v0.731z"></path>
            <path fill="#fff" style="fill: var(--color1, #fff)" d="M34.209 28.515h1.797v0.672h-1.797v-0.672zM34.273 30.051h2.032v0.693h-2.891v-3.733h2.821v0.693h-1.963v2.347zM37.952 30.744v-3.733h0.715l2.203 2.688h-0.347v-2.688h0.853v3.733h-0.709l-2.208-2.688h0.347v2.688h-0.853zM45.022 30.808c-0.295 0-0.567-0.046-0.816-0.139-0.245-0.096-0.46-0.231-0.645-0.405-0.181-0.174-0.324-0.379-0.427-0.613-0.1-0.235-0.149-0.492-0.149-0.773s0.050-0.539 0.149-0.773c0.103-0.235 0.247-0.439 0.432-0.613s0.402-0.308 0.651-0.4c0.249-0.096 0.523-0.144 0.821-0.144 0.331 0 0.628 0.055 0.891 0.165 0.267 0.11 0.491 0.27 0.672 0.48l-0.555 0.512c-0.135-0.142-0.283-0.247-0.443-0.315-0.16-0.071-0.334-0.107-0.523-0.107-0.181 0-0.347 0.028-0.496 0.085s-0.279 0.139-0.389 0.245c-0.107 0.107-0.19 0.233-0.251 0.379-0.057 0.146-0.085 0.308-0.085 0.485 0 0.174 0.028 0.334 0.085 0.48 0.060 0.146 0.144 0.274 0.251 0.384 0.11 0.107 0.238 0.188 0.384 0.245 0.149 0.057 0.313 0.085 0.491 0.085 0.171 0 0.336-0.027 0.496-0.080 0.164-0.057 0.322-0.151 0.475-0.283l0.491 0.624c-0.203 0.153-0.439 0.27-0.709 0.352-0.267 0.082-0.533 0.123-0.8 0.123zM45.742 30.222v-1.403h0.789v1.515l-0.789-0.112zM48.294 30.744v-3.733h0.864v3.029h1.872v0.704h-2.736zM52.473 30.744v-3.733h0.864v3.733h-0.864zM56.41 30.808c-0.299 0-0.585-0.039-0.859-0.117-0.274-0.082-0.494-0.187-0.661-0.315l0.293-0.651c0.16 0.114 0.348 0.208 0.565 0.283 0.22 0.071 0.443 0.107 0.667 0.107 0.171 0 0.308-0.016 0.411-0.048 0.107-0.036 0.185-0.084 0.235-0.144s0.075-0.13 0.075-0.208c0-0.1-0.039-0.178-0.117-0.235-0.078-0.060-0.181-0.108-0.309-0.144-0.128-0.039-0.27-0.075-0.427-0.107-0.153-0.036-0.308-0.078-0.464-0.128-0.153-0.050-0.293-0.114-0.421-0.192s-0.233-0.181-0.315-0.309c-0.078-0.128-0.117-0.292-0.117-0.491 0-0.213 0.057-0.407 0.171-0.581 0.117-0.178 0.292-0.318 0.523-0.421 0.235-0.107 0.528-0.16 0.88-0.16 0.235 0 0.466 0.028 0.693 0.085 0.228 0.053 0.428 0.135 0.603 0.245l-0.267 0.656c-0.174-0.1-0.348-0.172-0.523-0.219-0.174-0.050-0.345-0.075-0.512-0.075s-0.304 0.020-0.411 0.059c-0.107 0.039-0.183 0.091-0.229 0.155-0.046 0.060-0.069 0.132-0.069 0.213 0 0.096 0.039 0.174 0.117 0.235 0.078 0.057 0.181 0.103 0.309 0.139s0.268 0.071 0.421 0.107c0.156 0.036 0.311 0.076 0.464 0.123 0.156 0.046 0.299 0.108 0.427 0.187s0.231 0.181 0.309 0.309c0.082 0.128 0.123 0.29 0.123 0.485 0 0.21-0.059 0.402-0.176 0.576s-0.293 0.315-0.528 0.421c-0.231 0.107-0.524 0.16-0.88 0.16zM62.104 27.011h0.864v3.733h-0.864v-3.733zM60.408 30.744h-0.864v-3.733h0.864v3.733zM62.168 29.214h-1.824v-0.731h1.824v0.731z"></path>
            <path fill="#fff" style="fill: var(--color1, #fff)" d="M70.715 14.915v2.822h-10.070v-12.913h9.837v2.822h-6.325v2.177h5.572v2.73h-5.572v2.361h6.558z"></path>
            <path fill="#fff" style="fill: var(--color1, #fff)" d="M85.333 4.824v12.913h-2.921l-5.537-6.881v6.881h-3.476v-12.913h2.921l5.537 6.881v-6.881h3.476z"></path>
            <path fill="#ff6b09" style="fill: var(--color2, #ff6b09)" d="M55.628 11.037c-0.183-0.423-0.436-0.839-0.805-1.319-0.932-1.206-1.216-3.896-1.219-3.922-0.013-0.129-0.101-0.235-0.218-0.274-0.12-0.039-0.25-0.003-0.335 0.094-1.112 1.28-0.644 3.257-0.392 4.047 0.069 0.216 0.145 0.471 0.199 0.729 0.411 2.087-0.382 3.031-0.569 3.222-0.18 0.052-0.303 0.026-0.417-0.1-0.392-0.442-0.521-1.89-0.338-3.776 0.038-0.384 0.028-0.729-0.025-1.051-0.386-2.319-1.803-3.806-2.164-4.328-0.992-1.509-1.093-4.022-1.096-4.044-0.003-0.119-0.070-0.226-0.174-0.277-0.101-0.052-0.224-0.045-0.319 0.023-1.655 1.158-1.513 3.947-1.282 5.505 0.054 0.361 0.158 0.729 0.338 1.193 0.641 1.661-0.126 3.805-0.133 3.825s-0.013 0.035-0.016 0.055c-0.098 0.529-0.262 0.845-0.445 0.845-0.019 0-0.038-0.003-0.060-0.010-0.224-0.048-0.341-0.293-0.344-0.506-0.013-2.751-2.694-3.676-2.723-3.686-0.12-0.039-0.253-0.003-0.335 0.097-0.085 0.1-0.101 0.239-0.044 0.355 0.032 0.068 0.133 0.364 0.063 1.413-0.060 0.942-0.227 1.874-0.496 2.767-0.638 2.141-0.537 4.17-0.531 4.267 0.491 5.492 8.163 6.455 12.716 3.36 0.499-0.339 0.906-0.726 1.206-1.151 1.68-2.386 0.692-5.628-0.044-7.35zM43.957 16.284c0.009 0.177-0.123 0.329-0.297 0.339h-0.019c-0.167 0-0.306-0.132-0.316-0.303-0.028-0.471-0.022-0.964 0.013-1.5 0.013-0.177 0.164-0.31 0.338-0.3 0.174 0.013 0.306 0.168 0.294 0.345-0.035 0.51-0.041 0.974-0.013 1.419zM44.112 13.426c-0.019 0.164-0.155 0.284-0.313 0.284-0.013 0-0.025 0-0.041-0.003-0.171-0.023-0.294-0.181-0.275-0.358l0.152-1.245c0.022-0.174 0.177-0.3 0.354-0.281 0.174 0.023 0.297 0.184 0.275 0.361l-0.152 1.242z"></path>
            <path fill="#ff6b09" style="fill: var(--color2, #ff6b09)" d="M53.492 4.412c-0.172-0.027-0.29-0.192-0.264-0.368 0.020-0.131 0.134-0.802 0.444-1.139 0.119-0.13 0.319-0.137 0.447-0.015s0.134 0.326 0.014 0.456c-0.131 0.143-0.243 0.552-0.28 0.796-0.027 0.174-0.186 0.296-0.361 0.269z"></path>
            <path fill="#ff6b09" style="fill: var(--color2, #ff6b09)" d="M41.976 6.018c-0.060-0.24-0.211-0.635-0.355-0.764-0.131-0.117-0.144-0.321-0.029-0.455s0.314-0.148 0.446-0.030c0.34 0.305 0.518 0.961 0.55 1.089 0.043 0.172-0.059 0.348-0.227 0.392-0.172 0.044-0.342-0.062-0.385-0.232z"></path>
        </symbol>
        <symbol id="icon-icon-check-1" viewBox="0 0 42 32">
            <path stroke-miterlimit="4" stroke-width="0.64" d="M6.264 15.206l-0.221-0.211-0.221 0.208-3.085 2.925 0.243 0.234 11.411 10.882 0.221-0.211 24.261-23.144-0.243-0.23-3.044-2.903-0.221 0.211-20.974 19.992-8.127-7.752z"></path>
        </symbol>
    </defs>
  
    <symbol id="icon-logo-6" viewBox="0 0 85 32">
        <path fill="#ff6b09" style="fill: var(--color1, #ff6b09)" d="M3.003 27.2h0.864v3.733h-0.864v-3.733zM1.307 30.933h-0.864v-3.733h0.864v3.733zM3.067 29.403h-1.824v-0.731h1.824v0.731zM6.505 28.704h1.797v0.672h-1.797v-0.672zM6.569 30.24h2.032v0.693h-2.891v-3.733h2.821v0.693h-1.963v2.347zM10.248 30.933v-3.733h0.864v3.029h1.872v0.704h-2.736zM14.427 30.933v-3.733h0.864v3.029h1.872v0.704h-2.736zM18.606 30.933v-3.733h0.864v3.733h-0.864zM22.542 30.997c-0.299 0-0.585-0.039-0.859-0.117-0.274-0.082-0.494-0.187-0.661-0.315l0.293-0.651c0.16 0.114 0.348 0.208 0.565 0.283 0.22 0.071 0.443 0.107 0.667 0.107 0.171 0 0.308-0.016 0.411-0.048 0.107-0.036 0.185-0.084 0.235-0.144s0.075-0.13 0.075-0.208c0-0.1-0.039-0.178-0.117-0.235-0.078-0.060-0.181-0.108-0.309-0.144-0.128-0.039-0.27-0.075-0.427-0.107-0.153-0.036-0.308-0.078-0.464-0.128-0.153-0.050-0.293-0.114-0.421-0.192s-0.233-0.181-0.315-0.309c-0.078-0.128-0.117-0.292-0.117-0.491 0-0.213 0.057-0.407 0.171-0.581 0.117-0.178 0.292-0.318 0.523-0.421 0.235-0.107 0.528-0.16 0.88-0.16 0.235 0 0.466 0.028 0.693 0.085 0.228 0.053 0.428 0.135 0.603 0.245l-0.267 0.656c-0.174-0.1-0.348-0.172-0.523-0.219-0.174-0.050-0.345-0.075-0.512-0.075s-0.304 0.020-0.411 0.059-0.183 0.091-0.229 0.155c-0.046 0.060-0.069 0.132-0.069 0.213 0 0.096 0.039 0.174 0.117 0.235 0.078 0.057 0.181 0.103 0.309 0.139s0.268 0.071 0.421 0.107c0.156 0.036 0.311 0.076 0.464 0.123 0.156 0.046 0.299 0.108 0.427 0.187s0.231 0.181 0.309 0.309c0.082 0.128 0.123 0.29 0.123 0.485 0 0.21-0.059 0.402-0.176 0.576s-0.293 0.315-0.528 0.421c-0.231 0.107-0.524 0.16-0.88 0.16zM28.237 27.2h0.864v3.733h-0.864v-3.733zM26.541 30.933h-0.864v-3.733h0.864v3.733zM28.301 29.403h-1.824v-0.731h1.824v0.731z"></path>
        <path fill="#111518" style="fill: var(--color2, #111518)" d="M34.209 28.704h1.797v0.672h-1.797v-0.672zM34.273 30.24h2.032v0.693h-2.891v-3.733h2.821v0.693h-1.963v2.347zM37.952 30.933v-3.733h0.715l2.203 2.688h-0.347v-2.688h0.853v3.733h-0.709l-2.208-2.688h0.347v2.688h-0.853zM45.022 30.997c-0.295 0-0.567-0.046-0.816-0.139-0.245-0.096-0.46-0.231-0.645-0.405-0.181-0.174-0.324-0.379-0.427-0.613-0.1-0.235-0.149-0.492-0.149-0.773s0.050-0.539 0.149-0.773c0.103-0.235 0.247-0.439 0.432-0.613s0.402-0.308 0.651-0.4c0.249-0.096 0.523-0.144 0.821-0.144 0.331 0 0.628 0.055 0.891 0.165 0.267 0.11 0.491 0.27 0.672 0.48l-0.555 0.512c-0.135-0.142-0.283-0.247-0.443-0.315-0.16-0.071-0.334-0.107-0.523-0.107-0.181 0-0.347 0.028-0.496 0.085s-0.279 0.139-0.389 0.245c-0.107 0.107-0.19 0.233-0.251 0.379-0.057 0.146-0.085 0.308-0.085 0.485 0 0.174 0.028 0.334 0.085 0.48 0.060 0.146 0.144 0.274 0.251 0.384 0.11 0.107 0.238 0.188 0.384 0.245 0.149 0.057 0.313 0.085 0.491 0.085 0.171 0 0.336-0.027 0.496-0.080 0.164-0.057 0.322-0.151 0.475-0.283l0.491 0.624c-0.203 0.153-0.439 0.27-0.709 0.352-0.267 0.082-0.533 0.123-0.8 0.123zM45.742 30.411v-1.403h0.789v1.515l-0.789-0.112zM48.294 30.933v-3.733h0.864v3.029h1.872v0.704h-2.736zM52.473 30.933v-3.733h0.864v3.733h-0.864zM56.41 30.997c-0.299 0-0.585-0.039-0.859-0.117-0.274-0.082-0.494-0.187-0.661-0.315l0.293-0.651c0.16 0.114 0.348 0.208 0.565 0.283 0.22 0.071 0.443 0.107 0.667 0.107 0.171 0 0.308-0.016 0.411-0.048 0.107-0.036 0.185-0.084 0.235-0.144s0.075-0.13 0.075-0.208c0-0.1-0.039-0.178-0.117-0.235-0.078-0.060-0.181-0.108-0.309-0.144-0.128-0.039-0.27-0.075-0.427-0.107-0.153-0.036-0.308-0.078-0.464-0.128-0.153-0.050-0.293-0.114-0.421-0.192s-0.233-0.181-0.315-0.309c-0.078-0.128-0.117-0.292-0.117-0.491 0-0.213 0.057-0.407 0.171-0.581 0.117-0.178 0.292-0.318 0.523-0.421 0.235-0.107 0.528-0.16 0.88-0.16 0.235 0 0.466 0.028 0.693 0.085 0.228 0.053 0.428 0.135 0.603 0.245l-0.267 0.656c-0.174-0.1-0.348-0.172-0.523-0.219-0.174-0.050-0.345-0.075-0.512-0.075s-0.304 0.020-0.411 0.059-0.183 0.091-0.229 0.155c-0.046 0.060-0.069 0.132-0.069 0.213 0 0.096 0.039 0.174 0.117 0.235 0.078 0.057 0.181 0.103 0.309 0.139s0.268 0.071 0.421 0.107c0.156 0.036 0.311 0.076 0.464 0.123 0.156 0.046 0.299 0.108 0.427 0.187s0.231 0.181 0.309 0.309c0.082 0.128 0.123 0.29 0.123 0.485 0 0.21-0.059 0.402-0.176 0.576s-0.293 0.315-0.528 0.421c-0.231 0.107-0.524 0.16-0.88 0.16zM62.104 27.2h0.864v3.733h-0.864v-3.733zM60.408 30.933h-0.864v-3.733h0.864v3.733zM62.168 29.403h-1.824v-0.731h1.824v0.731z"></path>
        <path fill="#111518" style="fill: var(--color2, #111518)" d="M12.082 6.109v12.925h-3.592v-5.041h-4.898v5.041h-3.592v-12.925h3.592v4.856h4.898v-4.856h3.592z"></path>
        <path fill="#111518" style="fill: var(--color2, #111518)" d="M25.228 14.048c0 0.025-0.018 0.314-0.054 0.868h-7.147c0.145 0.517 0.423 0.917 0.834 1.2 0.423 0.271 0.949 0.406 1.578 0.406 0.472 0 0.877-0.068 1.215-0.203 0.351-0.135 0.701-0.357 1.052-0.665l1.814 1.92c-0.955 1.083-2.352 1.625-4.191 1.625-1.149 0-2.159-0.222-3.030-0.665s-1.548-1.059-2.032-1.846c-0.472-0.788-0.708-1.68-0.708-2.677 0-0.985 0.23-1.865 0.689-2.64 0.472-0.788 1.119-1.403 1.941-1.846s1.748-0.665 2.775-0.665c0.98 0 1.869 0.209 2.667 0.628 0.798 0.406 1.427 1.003 1.887 1.791 0.472 0.775 0.707 1.699 0.707 2.77zM19.985 11.353c-0.532 0-0.98 0.154-1.343 0.462-0.351 0.308-0.574 0.726-0.671 1.256h4.027c-0.097-0.529-0.326-0.948-0.689-1.256-0.351-0.308-0.792-0.462-1.324-0.462z"></path>
        <path fill="#111518" style="fill: var(--color2, #111518)" d="M27.542 5.333h3.447v13.7h-3.447v-13.7z"></path>
        <path fill="#111518" style="fill: var(--color2, #111518)" d="M33.955 5.333h3.447v13.7h-3.447v-13.7z"></path>
        <path fill="#ff6b09" style="fill: var(--color1, #ff6b09)" d="M55.516 11.062c-0.181-0.423-0.43-0.84-0.795-1.322-0.919-1.209-1.2-3.905-1.203-3.931-0.012-0.129-0.1-0.236-0.215-0.275-0.118-0.039-0.246-0.003-0.33 0.094-1.097 1.283-0.636 3.265-0.386 4.057 0.069 0.217 0.143 0.472 0.196 0.73 0.405 2.091-0.377 3.038-0.561 3.229-0.178 0.052-0.299 0.026-0.411-0.1-0.387-0.443-0.514-1.894-0.334-3.785 0.037-0.385 0.028-0.73-0.025-1.054-0.381-2.324-1.779-3.815-2.135-4.338-0.979-1.513-1.078-4.031-1.081-4.053-0.003-0.12-0.069-0.226-0.171-0.278-0.1-0.052-0.221-0.045-0.315 0.023-1.633 1.16-1.493 3.956-1.265 5.518 0.053 0.362 0.156 0.731 0.334 1.196 0.633 1.665-0.125 3.814-0.131 3.834s-0.012 0.036-0.016 0.055c-0.097 0.53-0.259 0.847-0.439 0.847-0.019 0-0.037-0.003-0.059-0.010-0.221-0.049-0.337-0.294-0.34-0.508-0.012-2.757-2.659-3.685-2.687-3.695-0.118-0.039-0.249-0.003-0.33 0.097-0.084 0.1-0.1 0.239-0.044 0.356 0.031 0.068 0.131 0.365 0.062 1.416-0.059 0.944-0.224 1.878-0.489 2.773-0.63 2.146-0.53 4.179-0.524 4.276 0.484 5.505 8.055 6.469 12.548 3.368 0.492-0.339 0.895-0.727 1.191-1.154 1.658-2.392 0.683-5.64-0.044-7.366zM43.999 16.321c0.009 0.178-0.121 0.33-0.293 0.339h-0.019c-0.165 0-0.302-0.133-0.312-0.304-0.028-0.472-0.022-0.966 0.012-1.503 0.012-0.178 0.162-0.31 0.334-0.301 0.171 0.013 0.302 0.168 0.29 0.346-0.034 0.511-0.041 0.976-0.012 1.422zM44.152 13.457c-0.019 0.165-0.153 0.284-0.309 0.284-0.012 0-0.025 0-0.041-0.003-0.168-0.023-0.29-0.181-0.271-0.359l0.15-1.248c0.022-0.175 0.175-0.301 0.349-0.281 0.171 0.023 0.293 0.184 0.271 0.362l-0.15 1.244z"></path>
        <path fill="#ff6b09" style="fill: var(--color1, #ff6b09)" d="M53.408 4.422c-0.17-0.027-0.286-0.192-0.26-0.368 0.020-0.131 0.132-0.804 0.438-1.142 0.118-0.13 0.315-0.137 0.441-0.015s0.132 0.327 0.014 0.457c-0.129 0.143-0.24 0.553-0.276 0.798-0.026 0.174-0.183 0.297-0.356 0.27z"></path>
        <path fill="#ff6b09" style="fill: var(--color1, #ff6b09)" d="M42.045 6.032c-0.060-0.24-0.208-0.637-0.35-0.766-0.13-0.118-0.142-0.322-0.029-0.456s0.31-0.148 0.44-0.030c0.336 0.305 0.511 0.963 0.543 1.092 0.043 0.173-0.058 0.349-0.224 0.393-0.17 0.044-0.337-0.063-0.38-0.232z"></path>
        <path fill="#111518" style="fill: var(--color2, #111518)" d="M70.78 15.336v2.798h-10.025v-12.8h9.793v2.798h-6.297v2.158h5.548v2.706h-5.548v2.34h6.529z"></path>
        <path fill="#111518" style="fill: var(--color2, #111518)" d="M85.333 5.333v12.8h-2.908l-5.512-6.821v6.821h-3.461v-12.8h2.908l5.512 6.821v-6.821h3.46z"></path>
    </symbol>
    <symbol id="icon-menu" viewBox="0 0 21 12">
        <path stroke-linejoin="miter" stroke-linecap="round" stroke-miterlimit="4" stroke-width="4.5714" d="M2.286 2.286h48"></path>
        <path stroke-linejoin="miter" stroke-linecap="round" stroke-miterlimit="4" stroke-width="4.5714" d="M2.286 16h48"></path>
        <path stroke-linejoin="miter" stroke-linecap="round" stroke-miterlimit="4" stroke-width="4.5714" d="M2.286 29.714h48"></path>
    </symbol>
    <symbol id="icon-menu2" viewBox="0 0 23 14">
        <path d="M1 1H22" stroke="black" stroke-width="2" stroke-linecap="round"/></path>
    <path d="M1 7H22" stroke="black" stroke-width="2" stroke-linecap="round"/></path>
<path d="M1 13H22" stroke="black" stroke-width="2" stroke-linecap="round"/></path>
</symbol>
<symbol id="icon-study-program" viewBox="0 0 15 15">
    <path fill="#ff6b09" style="fill:var(--color1, #ff6b09)" d="M13.627 2.853v-.001c-.003-.006-.006-.013-.01-.018l-.001-.001a.115.115 0 0 0-.014-.017L11.619.853 11.602.84a.008.008 0 0 0-.004-.002L11.583.83l-.004-.002a.115.115 0 0 0-.041-.008H2.799a.116.116 0 0 0-.117.116v11.975l.002.023.003.009.004.012.006.011.005.009.013.016.001.001.893.884c.046.045.12.045.166 0l.811-.802.81.802c.023.023.053.034.083.034s.06-.011.083-.034l.81-.802.811.802c.046.045.12.045.166 0l.81-.802.81.802c.046.045.12.045.166 0l.811-.802.81.802c.023.023.053.034.083.034s.06-.011.083-.034l.81-.802.811.802c.046.045.12.045.166 0l.893-.884.005-.006.01-.012a.075.075 0 0 0 .007-.012l.004-.008a.098.098 0 0 0 .005-.016l.002-.005c.002-.008.002-.016.002-.024V2.899a.112.112 0 0 0-.009-.044zm-1.974-1.638 1.583 1.567h-1.583V1.215zm1.748 11.646-.776.768-.811-.802a.119.119 0 0 0-.166 0l-.81.802-.81-.802a.119.119 0 0 0-.166 0l-.811.802-.81-.802c-.023-.023-.053-.034-.083-.034s-.06.011-.083.034l-.81.802-.811-.802a.119.119 0 0 0-.166 0l-.81.802-.81-.802a.119.119 0 0 0-.166 0l-.811.802-.776-.768V1.05h8.502v1.847c0 .064.053.116.117.116H13.4v9.847z"/>
    <path fill="#ff6b09" style="fill:var(--color1, #ff6b09)" d="M3.79 2.148h3.839c.065 0 .117-.052.117-.116s-.053-.116-.117-.116H3.79c-.065 0-.117.052-.117.116s.052.116.117.116zM3.79 2.866h6.156c.065 0 .117-.052.117-.116s-.053-.116-.117-.116H3.79c-.065 0-.117.052-.117.116s.052.116.117.116zM3.673 3.51v3.758c0 .064.052.116.117.116h8.737a.116.116 0 0 0 .117-.116V3.51a.116.116 0 0 0-.117-.116H3.79a.116.116 0 0 0-.117.116zm2.591.116h6.146v.999H6.264v-.999zm0 1.231h6.146v.998H6.264v-.998zm0 1.231h6.146v1.064H6.264V6.088zM3.907 3.626h2.122v.999H3.907v-.999zm0 1.231h2.122v.998H3.907v-.998zm0 1.231h2.122v1.064H3.907V6.088zM12.527 7.906H3.79a.116.116 0 0 0-.117.116v3.758c0 .064.052.116.117.116s.117-.052.117-.116V10.6h2.122v1.18a.117.117 0 0 0 .234 0V10.6h6.146v1.18a.117.117 0 0 0 .234 0V8.022a.116.116 0 0 0-.117-.116zm-6.498 2.462H3.907V9.37h2.122v.998zm0-1.231H3.907v-.999h2.122v.999zm6.381 1.231H6.264V9.37h6.146v.998zm0-1.231H6.264v-.999h6.146v.999zM2.126.818a.116.116 0 0 0-.117.116v11.975a.117.117 0 0 0 .234 0V.934a.117.117 0 0 0-.117-.116zM1.481.818a.116.116 0 0 0-.117.116v11.975a.117.117 0 0 0 .234 0V.934a.116.116 0 0 0-.117-.116z"/>
</symbol>
<symbol id="icon-study-program" viewBox="0 0 55 55"><path fill="#ff6b09" style="fill:var(--color1, #ff6b09)" d="m49.965 10.463-.001-.004a.494.494 0 0 0-.091-.136l-7.272-7.199a.372.372 0 0 0-.062-.049l-.014-.009a.414.414 0 0 0-.071-.036.426.426 0 0 0-.149-.03l-.008-.001H10.262a.428.428 0 0 0-.429.426v43.907c0 .028.003.055.008.083a.338.338 0 0 0 .011.034c.005.015.008.03.014.045a.372.372 0 0 0 .021.039c.006.011.012.024.019.034a.581.581 0 0 0 .049.06l.004.005 3.275 3.242c.168.166.44.166.608 0l2.973-2.941 2.972 2.941a.432.432 0 0 0 .608 0l2.971-2.941 2.973 2.941c.168.166.44.166.608 0l2.971-2.941 2.971 2.941c.168.166.44.166.607 0l2.974-2.941 2.971 2.941a.432.432 0 0 0 .608 0l2.971-2.941 2.973 2.941c.167.166.44.166.607 0l3.275-3.242.017-.02c.012-.014.025-.028.036-.044.01-.014.017-.03.025-.045.005-.01.011-.018.014-.028.009-.019.013-.039.018-.059l.007-.02a.421.421 0 0 0 .009-.087V10.624a.458.458 0 0 0-.035-.163zm-7.238-6.009 5.804 5.746h-5.804V4.454zm6.412 42.702-2.845 2.816-2.973-2.941a.432.432 0 0 0-.607 0l-2.971 2.941-2.971-2.941a.433.433 0 0 0-.608 0l-2.973 2.941-2.97-2.94v-.002a.432.432 0 0 0-.608 0h-.001l-2.97 2.941-2.973-2.941a.433.433 0 0 0-.608 0l-2.971 2.941-2.972-2.941a.433.433 0 0 0-.608 0l-2.973 2.941-2.845-2.816V3.85h31.175v6.774c0 .235.193.426.43.426h6.841v36.106z"/><path fill="#ff6b09" style="fill:var(--color1, #ff6b09)" d="M13.897 7.877h14.077c.237 0 .43-.191.43-.426s-.193-.426-.43-.426H13.897c-.238 0-.43.191-.43.426s.192.426.43.426zM13.897 10.508h22.574c.237 0 .43-.191.43-.426s-.193-.426-.43-.426H13.897c-.238 0-.43.191-.43.426s.192.426.43.426zM13.467 12.87v13.779c0 .235.192.426.43.426h32.036a.428.428 0 0 0 .429-.426V12.87a.428.428 0 0 0-.429-.426H13.897a.428.428 0 0 0-.43.426zm9.5.426h22.535v3.662H22.967v-3.662zm0 4.514h22.535v3.661H22.967V17.81zm0 4.512h22.535v3.903H22.967v-3.903zm-8.64-9.026h7.781v3.662h-7.781v-3.662zm0 4.514h7.781v3.661h-7.781V17.81zm0 4.512h7.781v3.903h-7.781v-3.903zM45.933 28.99H13.897a.428.428 0 0 0-.43.426v13.779c0 .235.192.425.43.425s.43-.19.43-.425v-4.328h7.781v4.328c0 .235.193.425.43.425.238 0 .43-.19.43-.425v-4.328h22.535v4.328c0 .235.193.425.43.425s.43-.19.43-.425V29.416a.426.426 0 0 0-.428-.426zm-23.825 9.026h-7.781v-3.66h7.781v3.66zm0-4.512h-7.781v-3.661h7.781v3.661zm23.394 4.512H22.967v-3.66h22.535v3.66zm0-4.512H22.967v-3.661h22.535v3.661zM7.794 3a.428.428 0 0 0-.43.426v43.907c0 .235.193.425.43.425s.43-.191.43-.425V3.426A.428.428 0 0 0 7.794 3zM5.43 3a.428.428 0 0 0-.43.426v43.907c0 .235.193.425.43.425s.429-.191.429-.425V3.426A.428.428 0 0 0 5.43 3z"/></symbol>
</defs>

</svg>