<svg width="55" height="55" viewBox="0 0 55 55" fill="none" xmlns="http://www.w3.org/2000/svg">
<path d="M49.9653 10.4628C49.9653 10.4618 49.9643 10.4608 49.9643 10.4592C49.9543 10.4358 49.9422 10.4128 49.928 10.3915C49.9264 10.3899 49.9253 10.3883 49.9243 10.3868C49.9096 10.3649 49.8927 10.343 49.8732 10.3237L42.6013 3.12502C42.5823 3.10626 42.5618 3.09063 42.5397 3.07604C42.5355 3.07292 42.5302 3.0703 42.526 3.06718C42.5081 3.05623 42.4902 3.04634 42.4713 3.038C42.4655 3.03539 42.4602 3.03279 42.455 3.03122C42.4076 3.01247 42.3565 3.00257 42.3055 3.00101C42.3023 3.00101 42.2997 3.00049 42.2976 3.00049H10.2625C10.0251 3.00049 9.83301 3.19119 9.83301 3.42618V47.3333C9.83301 47.3614 9.83564 47.3885 9.84143 47.4167C9.84406 47.4287 9.84828 47.4396 9.85196 47.4511C9.8567 47.4662 9.86038 47.4813 9.86617 47.4959C9.87196 47.5089 9.87933 47.5214 9.88669 47.5344C9.89301 47.5454 9.89827 47.5579 9.90564 47.5688C9.92037 47.5902 9.93722 47.6105 9.95512 47.6287C9.95669 47.6303 9.95722 47.6324 9.95932 47.6334L13.2345 50.8753C13.4024 51.0416 13.674 51.0416 13.8424 50.8753L16.815 47.9341L19.7865 50.8753C19.8702 50.9587 19.9807 50.9999 20.0907 50.9999C20.2002 50.9999 20.3102 50.9587 20.3944 50.8753L23.3654 47.9346L26.3379 50.8753C26.5058 51.0416 26.7779 51.0416 26.9458 50.8753L29.9168 47.9346L32.8878 50.8753C33.0557 51.0416 33.3278 51.0416 33.4952 50.8753L36.4688 47.9341L39.4398 50.8753C39.5234 50.9587 39.634 50.9999 39.7434 50.9999C39.8534 50.9999 39.9634 50.9587 40.0476 50.8753L43.0186 47.9346L45.9917 50.8753C46.1591 51.0416 46.4317 51.0416 46.5991 50.8753L49.8743 47.6334C49.8806 47.6272 49.8853 47.6199 49.8911 47.6131C49.9032 47.599 49.9164 47.585 49.9269 47.5693C49.9369 47.5553 49.9438 47.5391 49.9517 47.524C49.9569 47.5141 49.9627 47.5058 49.9659 47.4959C49.9748 47.4766 49.979 47.4568 49.9843 47.437C49.9864 47.4302 49.9895 47.424 49.9911 47.4172C49.9969 47.388 50.0001 47.3599 50.0001 47.3302V10.6254C49.9985 10.5697 49.9874 10.5144 49.9653 10.4628ZM42.7265 4.45367L48.5306 10.1992H42.7265V4.45367ZM49.1385 47.1561L46.2938 49.9724L43.3207 47.0311C43.1534 46.8654 42.8813 46.8654 42.7134 47.0311L39.7424 49.9724L36.7714 47.0311C36.6035 46.8654 36.3314 46.8654 36.1635 47.0311L33.1904 49.9724L30.2199 47.0327C30.2199 47.0321 30.2194 47.0316 30.2194 47.0311C30.1358 46.9483 30.0258 46.9066 29.9152 46.9066C29.8052 46.9066 29.6952 46.9483 29.6116 47.0311C29.611 47.0316 29.611 47.0316 29.611 47.0316L26.6406 49.9724L23.668 47.0311C23.5001 46.8654 23.2285 46.8654 23.0601 47.0311L20.0891 49.9724L17.1176 47.0311C16.9497 46.8654 16.6781 46.8654 16.5097 47.0311L13.5371 49.9724L10.6919 47.1561V3.85083H41.8671V10.6244C41.8671 10.8594 42.0597 11.0501 42.2971 11.0501H49.138L49.1385 47.1561Z" fill="#FF6B09"/>
<path d="M13.8968 7.87653H27.9733C28.2107 7.87653 28.4033 7.68583 28.4033 7.45084C28.4033 7.21585 28.2107 7.02515 27.9733 7.02515H13.8968C13.6589 7.02515 13.4668 7.21585 13.4668 7.45084C13.4668 7.68583 13.6589 7.87653 13.8968 7.87653Z" fill="#FF6B09"/>
<path d="M13.8968 10.5081H36.4705C36.7079 10.5081 36.9005 10.3174 36.9005 10.0824C36.9005 9.84744 36.7079 9.65674 36.4705 9.65674H13.8968C13.6589 9.65674 13.4668 9.84744 13.4668 10.0824C13.4668 10.3174 13.6589 10.5081 13.8968 10.5081Z" fill="#FF6B09"/>
<path d="M13.4668 12.8705V26.65C13.4668 26.885 13.6589 27.0757 13.8968 27.0757H45.933C46.1703 27.0757 46.3624 26.885 46.3624 26.65V12.8705C46.3624 12.6355 46.1703 12.4448 45.933 12.4448H13.8968C13.6589 12.4448 13.4668 12.6355 13.4668 12.8705ZM22.9671 13.2962H45.5024V16.9586H22.9671V13.2962ZM22.9671 17.81H45.5024V21.4708H22.9671V17.81ZM22.9671 22.3217H45.5024V26.2243H22.9671V22.3217ZM14.3268 13.2962H22.1077V16.9586H14.3268V13.2962ZM14.3268 17.81H22.1077V21.4708H14.3268V17.81ZM14.3268 22.3217H22.1077V26.2243H14.3268V22.3217Z" fill="#FF6B09"/>
<path d="M45.933 28.9905H13.8968C13.6589 28.9905 13.4668 29.1812 13.4668 29.4162V43.1951C13.4668 43.4301 13.6589 43.6203 13.8968 43.6203C14.1341 43.6203 14.3263 43.4301 14.3263 43.1951V38.8673H22.1071V43.1951C22.1071 43.4301 22.2998 43.6203 22.5366 43.6203C22.7745 43.6203 22.9666 43.4301 22.9666 43.1951V38.8673H45.5019V43.1951C45.5019 43.4301 45.6945 43.6203 45.9319 43.6203C46.1693 43.6203 46.3614 43.4301 46.3614 43.1951V29.4162C46.3624 29.1812 46.1703 28.9905 45.933 28.9905ZM22.1077 38.016H14.3268V34.3556H22.1077V38.016ZM22.1077 33.5037H14.3268V29.8424H22.1077V33.5037ZM45.5024 38.016H22.9671V34.3556H45.5024V38.016ZM45.5024 33.5037H22.9671V29.8424H45.5024V33.5037Z" fill="#FF6B09"/>
<path d="M7.79425 3C7.55689 3 7.36426 3.1907 7.36426 3.42569V47.3328C7.36426 47.5673 7.55689 47.758 7.79425 47.758C8.03161 47.758 8.22423 47.5673 8.22423 47.3328V3.42569C8.22423 3.1907 8.03161 3 7.79425 3Z" fill="#FF6B09"/>
<path d="M5.42999 3C5.19263 3 5 3.1907 5 3.42569V47.3328C5 47.5673 5.19263 47.758 5.42999 47.758C5.66736 47.758 5.85945 47.5673 5.85945 47.3328V3.42569C5.85945 3.1907 5.66736 3 5.42999 3Z" fill="#FF6B09"/>
</svg>
