<svg aria-hidden="true" style="position: absolute; width: 0; height: 0; overflow: hidden;" version="1.1" xmlns="http://www.w3.org/2000/svg" xmlns:xlink="http://www.w3.org/1999/xlink">
<defs>
<symbol id="icon-audio-book-1" viewBox="0 0 55 55">
<path d="M5.188 46.010h17.055c0.852 1.781 2.64 2.99 4.71 2.99 0.001 0 0.002 0 0.003 0h1.077c0.002 0 0.004 0 0.005 0 2.070 0 3.858-1.209 4.696-2.959l0.014-0.031h17.065c1.757 0 3.187-1.449 3.187-3.23v-30.954c0-1.781-1.43-3.23-3.188-3.23h-1.72v-1.443c0-1.187-0.954-2.153-2.126-2.153h-36.943c-1.17 0-2.123 0.966-2.123 2.153v1.443h-1.713c-1.757 0-3.187 1.449-3.187 3.23v30.954c0 1.781 1.43 3.23 3.188 3.23zM45.964 39.367h-17.401v-25.020c4.022 0.534 7.14 4.021 7.14 8.24v0.97l-0.252-0.055c-0.069-0.016-0.147-0.025-0.228-0.025-0.509 0-0.935 0.359-1.037 0.838l-0.001 0.007-1.691 7.8c-0.126 0.58 0.236 1.153 0.81 1.28l3.655 0.817c0.189 0.040 0.38 0.061 0.572 0.061 1.286 0 2.38-0.89 2.66-2.169l0.98-4.51c0.322-1.481-0.605-2.954-2.070-3.284l-1.273-0.285v-1.445c0-5.409-4.068-9.872-9.266-10.415v-5.019h17.404l-0.002 32.214zM36.032 25.837l2.61 0.582c0.27 0.061 0.468 0.299 0.468 0.583 0 0.048-0.006 0.094-0.016 0.139l0.001-0.004-0.978 4.51c-0.071 0.275-0.317 0.476-0.61 0.476-0.035 0-0.069-0.003-0.102-0.008l0.004 0-2.613-0.584 1.236-5.695zM9.024 7.152h17.413v5.017c-5.202 0.539-9.276 5.005-9.276 10.417v1.445l-1.274 0.285c-0.71 0.16-1.316 0.588-1.705 1.206-0.269 0.418-0.428 0.928-0.428 1.476 0 0.213 0.024 0.42 0.070 0.619l-0.004-0.019 0.977 4.505c0.269 1.245 1.356 2.166 2.661 2.176h0.001c0.192 0 0.384-0.020 0.58-0.063l3.64-0.814c0.572-0.129 0.934-0.702 0.808-1.282l-1.69-7.8c-0.104-0.486-0.529-0.845-1.039-0.845-0.081 0-0.16 0.009-0.235 0.026l0.007-0.001-0.244 0.055v-0.97c0-4.222 3.124-7.712 7.151-8.24v25.021h-17.414v-32.213zM18.949 25.836l1.237 5.694-2.598 0.582c-0.037 0.008-0.080 0.013-0.125 0.013-0.288 0-0.529-0.202-0.589-0.472l-0.001-0.004-0.978-4.516c-0.010-0.040-0.015-0.086-0.015-0.134 0-0.283 0.197-0.52 0.461-0.581l0.004-0.001 2.603-0.582zM4.125 11.826c0-0.002 0-0.005 0-0.007 0-0.589 0.475-1.066 1.063-1.070h1.71v28.618c0 1.188 0.954 2.154 2.126 2.154h36.942c1.172 0 2.125-0.966 2.125-2.154v-28.617h1.721c0.588 0.004 1.063 0.481 1.063 1.070 0 0.002 0 0.005 0 0.007v-0 30.953c0 0.002 0 0.005 0 0.007 0 0.589-0.475 1.066-1.063 1.070h-17.786c-0.467 0-0.879 0.309-1.016 0.76-0.39 1.299-1.575 2.23-2.977 2.23h-1.077c-1.371 0-2.567-0.892-2.98-2.242-0.139-0.436-0.539-0.746-1.012-0.748h-17.776c-0.588-0.004-1.063-0.481-1.063-1.070 0-0.002 0-0.005 0-0.007v0-30.954z"></path>
</symbol>
<symbol id="icon-female-student-1" viewBox="0 0 55 55">
<path d="M7.088 50h40.864c0.202-4.528-0.132-12.040-2.997-15.615l-0.103-0.129-6.261-3.054c0.136-0.446 0.203-0.854 0.23-1.154 0.030-0.36-0.020-0.698-0.153-1.005-1.033-2.401-3.219-3.665-4.42-4.203 0.342-0.659 0.593-1.425 0.711-2.235l0.005-0.039c0.69-0.187 1.221-0.72 1.404-1.396l0.003-0.014 0.731-2.884c0.038-0.143 0.060-0.307 0.060-0.476 0-0.61-0.287-1.154-0.734-1.502l-0.004-0.003c2.060-4.548-1.391-8.835-1.58-9.060-3.736-3.927-8.458-3.193-8.707-3.15-6.814 1.387-9.444 6.46-7.96 12.41-0.321 0.342-0.519 0.803-0.519 1.31 0 0.167 0.021 0.329 0.062 0.483l-0.003-0.013 0.734 2.888c0.185 0.686 0.713 1.216 1.383 1.402l0.014 0.003c0.22 1.471 0.848 2.767 1.765 3.802l-0.007-0.008v2.286c-9.778 4.865-3.583 1.762-11.418 5.613-0.016 0.072-3.677 3.853-3.133 15.058l0.033 0.685zM46.532 48.563h-6.725v-2.745l4.448-9.894c2.228 3.593 2.31 10.455 2.277 12.639zM37.353 29.926c-0.26 2.897-1.894 2.021-2.904 4.253-0.793-0.848-1.032-1.865-0.819-2.954 0.386-1.999-0.87-2.593-0.56-4.693l0.047-0.048v-0.007c0.027-0.029 0.275-0.315 0.346-0.406 2.661 1.127 3.942 3.223 3.89 3.855zM23.080 27.649c1.213 0.83 2.712 1.325 4.327 1.325 0.001 0 0.002 0 0.003 0h-0c1.51 0 2.945-0.427 4.175-1.214 0.17 1.651 0.835 1.982 0.599 3.197-0.038 0.19-0.068 0.419-0.082 0.651l-0.001 0.015-4.58 5.016-5.854-6.414 1.413-0.717v-1.858zM21.238 21.511v-7.667c0.713-1.28 1.685-2.21 2.893-2.766 3.234 1.778 6.957 4.431 9.454 7.102-0.002 3.401 0.010 3.41-0.013 3.69l-0.002 0.018c-0.195 3.088-2.809 5.648-6.16 5.648-3.258 0-5.964-2.486-6.16-5.679-0.008-0.093-0.012-0.201-0.012-0.31 0-0.013 0-0.025 0-0.038v0.002zM20.326 30.919l7.195 7.88 4.83-5.289c0.111 0.309 0.266 0.6 0.443 0.883l-5.273 6.406-7.863-9.554 0.668-0.326zM35.058 20.354v-2.22l0.55-0.612c0.030 1.125 0.155-0.202-0.55 2.832zM26.41 5.494c0.292 0.018 4.219-0.58 7.322 2.675 0.122 0.149 2.648 3.311 1.633 6.77-0.347-1.539-0.953-3.512-1.91-4.453l-1.045 1.012c0.944 0.93 1.565 3.76 1.801 5.229-4.333-4.406-9.923-7.195-10-7.242-0.28 0.17-2.646 0.607-4.364 3.85l-0.082 0.156v2.383l-0.216 0.002c-1.092-5.12 0.999-9.188 6.861-10.382zM19.393 17.354l0.372 1.464v1.538l-0.618-2.43c-0.090-0.362 0.186-0.5 0.246-0.571zM18.31 31.903l9.211 11.193 6.232-7.573c0.678 0.59 1.004 0.673 2.442 1.391l-0.485-1.597c-0.123-0.406 0.364-1.057 0.658-1.356 0.659-0.351 1.201-0.841 1.603-1.433l0.010-0.015 5.085 2.48-4.731 10.526v3.046h-21.628v-3.047l-4.734-10.523 6.336-3.090zM10.786 35.928l4.448 9.891v2.745h-6.726c-0.034-2.184 0.050-9.041 2.277-12.636z"></path>
</symbol>
<symbol id="icon-open-book-1" viewBox="0 0 55 55">
<path  d="M25.295 15.803h-14.512v1.092h14.512v-1.092zM25.295 19.88h-12.339v1.092h12.34v-1.092zM25.295 23.957h-14.512v1.092h14.512v-1.092zM25.295 28.034h-12.339v1.092h12.34v-1.092zM25.295 32.111h-14.512v1.093h14.512v-1.094zM25.295 36.188h-12.339v1.093h12.34v-1.093zM45.216 15.803h-14.512v1.092h14.512v-1.092zM43.043 19.88h-12.339v1.092h12.34v-1.092zM45.216 23.957h-14.512v1.092h14.512v-1.092zM43.043 28.034h-12.339v1.092h12.34v-1.092zM45.216 32.111h-14.512v1.093h14.512v-1.094zM43.043 36.188h-12.339v1.093h12.34v-1.093z"></path>
<path d="M50.457 14.558h-1.992v-3.011c0-0.001 0-0.001 0-0.002 0-0.301-0.244-0.545-0.545-0.545 0 0 0 0 0 0h-16.24c-0.004 0-0.009 0-0.014 0-1.567 0-2.934 0.859-3.655 2.132l-0.011 0.021c-0.732-1.294-2.099-2.153-3.667-2.153-0.005 0-0.009 0-0.014 0h-16.24c-0.3 0-0.544 0.245-0.544 0.547v3.010h-1.992c-0.3 0-0.543 0.246-0.543 0.547v29.35c0 0.301 0.243 0.546 0.543 0.546h44.914c0.3 0 0.543-0.245 0.543-0.547v-29.349c0-0 0-0.001 0-0.001 0-0.3-0.243-0.544-0.543-0.545h-0zM31.68 12.094h15.698v29.283h-16.858c-0.755 0.012-1.444 0.285-1.983 0.732l0.005-0.004v-26.862c-0-0.006-0-0.013-0-0.020 0-1.729 1.401-3.13 3.13-3.13 0.002 0 0.005 0 0.007 0h-0zM8.622 12.094h15.698c0.003 0 0.007 0 0.011 0 1.691 0 3.068 1.345 3.119 3.024l0 0.005c0 0.023 0.003 0.097 0.007 0.12v26.86c-0.532-0.442-1.218-0.714-1.967-0.726l-0.003-0h-16.866v-29.284zM6.087 15.65h1.448v26.273c0 0.302 0.244 0.547 0.544 0.547h17.407c0.828 0 1.629 0.546 1.885 1.436h-21.284v-28.256zM49.913 43.906h-21.283c0.239-0.835 0.995-1.436 1.892-1.436h17.4c0.3 0 0.544-0.245 0.544-0.547v-26.273h1.448v28.256z"></path>
</symbol>
<symbol id="icon-union-1" viewBox="0 0 55 55">
<path d="M6.969 22.837v4.247c0 0.228 0.104 0.443 0.282 0.585 2.771 2.205 6.32 3.539 10.181 3.543h0.001c1.164-0.002 2.298-0.124 3.393-0.355l-0.108 0.019c2.134 0.978 4.629 1.548 7.258 1.548 0.008 0 0.017 0 0.026 0h-0.001c0.011 0 0.023 0 0.035 0 2.625 0 5.117-0.57 7.359-1.593l-0.111 0.045c4.603 0.937 9.508-0.069 13.467-3.207 0.172-0.138 0.282-0.349 0.282-0.585 0-0 0-0 0-0v0-4.247c0-0.623-0.308-1.191-0.856-1.54l-5.76-3.264c1.26-1.61 2.199-3.903 2.362-5.87 0.478-3.384-2.26-6.969-6.203-6.969-1.658 0-3.234 0.688-4.39 1.84-0.040 0.040-0.086 0.074-0.125 0.115-0.035 0.038-0.064 0.081-0.099 0.12-0.023 0.025-0.043 0.053-0.066 0.080-1.127-2.071-3.292-3.349-5.844-3.349-0.248 0-0.491 0.017-0.732 0.042-0.015-0.001-0.028-0.009-0.043-0.009-0.136 0-0.427 0.037-0.581 0.082-0.023 0.006-0.040 0.023-0.062 0.031-1.933 0.397-3.531 1.584-4.47 3.202l-0.017 0.032c-1.144-1.341-2.836-2.185-4.724-2.185-0.003 0-0.006 0-0.009 0h0c-5.82 0-8.403 6.918-3.809 12.871l-5.812 3.25c-0.498 0.324-0.823 0.877-0.823 1.507 0 0.005 0 0.010 0 0.015v-0.001zM35.269 29.242c-0.125 0.061-0.248 0.127-0.374 0.185l-0.003 0.001c-2.008 0.953-4.362 1.509-6.847 1.509-0.016 0-0.032 0-0.048-0h0.002c-2.402 0-4.72-0.508-6.894-1.51-1.162-0.542-2.162-1.153-3.084-1.861l0.039 0.029v-4.305c0-0.146 0.070-0.276 0.152-0.331l6.764-3.787c0.842 0.72 1.917 1.248 3.030 1.248 1.074 0 2.233-0.536 3.057-1.265l6.682 3.78c0.123 0.080 0.194 0.209 0.194 0.355v4.305c-0.775 0.593-1.651 1.14-2.576 1.604l-0.095 0.043zM47.418 22.572c0.083 0.055 0.137 0.148 0.137 0.254 0 0.004-0 0.008-0 0.011v-0.001 3.881c-2.454 1.879-5.567 3.010-8.944 3.010-0.383 0-0.763-0.015-1.139-0.043l0.050 0.003c0.55-0.346 1.148-0.775 1.612-1.141 0.173-0.138 0.283-0.349 0.283-0.585 0 0 0-0 0-0v0-4.672c0-0.652-0.325-1.253-0.909-1.63l-3.549-2.009 0.863-0.482c1.047 0.86 1.946 1.116 2.753 1.116 0.986 0 2.025-0.487 2.796-1.138l6.047 3.426zM38.575 6.682c2.056 0 3.861 1.353 4.5 3.213-1.325-0.174-2.48-0.797-3.329-1.71l-0.003-0.003c-0.135-0.145-0.327-0.235-0.54-0.235-0.268 0-0.503 0.143-0.632 0.357l-0.002 0.003c-0.842 1.422-2.223 2.37-3.794 2.64v-0.005c0.001-0.036 0.001-0.080 0.001-0.123 0-0.302-0.018-0.6-0.053-0.893l0.003 0.035-0.010-0.099c-0.051-0.36-0.115-0.669-0.195-0.971l0.013 0.058c0.839-1.353 2.397-2.27 4.040-2.27zM34.613 12.465c1.926-0.217 3.588-1.197 4.7-2.626l0.012-0.016c1.143 0.943 2.592 1.515 4.024 1.584-0.010 2.688-2.19 7.39-4.774 7.39-1.992 0-3.692-2.868-4.327-4.857 0.161-0.511 0.279-1.003 0.365-1.475zM34.763 18.059l-1.32 0.736-1.331-0.754c0.493-0.62 0.946-1.339 1.334-2.12 0.373 0.79 0.82 1.515 1.317 2.138zM32.773 13.697c-0.713 2.14-2.54 5.235-4.765 5.235-2.595 0-4.804-4.296-5.225-7.044 0.112-0.028 3.618 0.19 6.030-3.001 1.225 1.032 2.877 1.715 4.484 1.782 0.019 0.97-0.215 2.11-0.525 3.028zM28.051 5.487c4.14 0 4.927 3.59 4.992 3.664-1.516-0.171-2.843-0.872-3.813-1.91l-0.003-0.004c-0.135-0.145-0.327-0.236-0.54-0.236-0.27 0-0.506 0.146-0.634 0.362l-0.002 0.003c-0.791 1.35-2.051 2.352-3.552 2.79l-0.043 0.011c-0.509 0.146-1.093 0.23-1.697 0.23-0.014 0-0.028-0-0.042-0h0.002c0.203-2.732 2.377-4.91 5.332-4.91zM22.558 15.907c0.383 0.772 0.838 1.51 1.36 2.157l-1.305 0.73-1.35-0.764c0.512-0.658 0.947-1.393 1.295-2.123zM17.413 6.682c1.674 0 3.209 0.856 4.064 2.271-0.043 0.15-0.159 0.747-0.174 0.822-1.078-0.269-2.001-0.828-2.708-1.591l-0.003-0.003c-0.135-0.145-0.326-0.235-0.539-0.235-0.27 0-0.505 0.145-0.633 0.362l-0.002 0.003c-0.973 1.633-2.725 2.712-4.731 2.722h-0.001c0.235-2.44 2.26-4.35 4.727-4.35zM12.751 12.516c2.2-0.029 4.151-1.070 5.414-2.678l0.011-0.015c0.847 0.702 1.881 1.208 3.016 1.434l0.044 0.007c0.044 0.862 0.267 1.91 0.522 2.683-0.407 1.26-1.19 2.76-2.16 3.758-0.006 0.006-0.015 0.009-0.020 0.015-0.608 0.645-1.472 1.078-2.151 1.078-2.374 0-4.23-3.762-4.676-6.282zM8.446 22.837c0-0.113 0.050-0.209 0.1-0.243l6.13-3.426c0.367 0.309 0.452 0.344 0.526 0.398 0.72 0.484 1.382 0.724 2.284 0.724 0.96 0 1.835-0.41 2.605-1.041 0.043-0.034 0.090-0.067 0.131-0.102l0.875 0.495-3.643 2.041c-0.545 0.354-0.87 0.955-0.87 1.607v4.672c0 0.228 0.104 0.443 0.283 0.584 0.471 0.373 1.083 0.809 1.612 1.142-3.625 0.25-7.152-0.792-10.033-2.97v-3.881z"></path>
<path d="M50.551 35.171c-0.464-0.3-1.032-0.479-1.641-0.479-0.491 0-0.955 0.116-1.366 0.322l0.018-0.008-9.113 4.435c-0.032-1.718-1.424-3.108-3.138-3.108l-5.225 0.002c-2.577-2.256-5.87-3.638-8.864-3.71-1.946-0.049-4.343-0.084-6.745-0.096l-0.095-0v-1.503h-10.382v17.274h10.383v-2.069c2.847 1.647 10.332 5.769 13.885 5.769 0.080 0 0.16-0.002 0.235-0.007 6.248-0.353 20.984-10.797 21.956-11.49 0.929-0.553 1.541-1.551 1.541-2.693 0-0.001 0-0.002 0-0.002v0c0-0.004 0-0.009 0-0.014 0-1.1-0.573-2.066-1.436-2.617l-0.013-0.007zM12.906 46.813h-7.43v-14.3h7.43v14.3zM49.7 39.227c-0.025 0.014-0.047 0.028-0.067 0.042l0.002-0.001c-0.153 0.109-15.31 10.907-21.213 11.24-0.053 0.003-0.116 0.005-0.179 0.005h-0.001c-3.116 0-10.713-4.129-13.86-6.001v-10.495c1.232 0.005 3.867 0.025 6.804 0.095 2.736 0.066 5.773 1.382 8.125 3.519l0.21 0.191h5.79c0.919 0 1.667 0.752 1.667 1.677s-0.748 1.679-1.666 1.679h-10.636v1.487h10.636c1.020 0 1.918-0.499 2.492-1.259l10.4-5.060c0.511-0.25 1.080-0.219 1.563 0.086 0.48 0.303 0.756 0.805 0.756 1.377 0 0.587-0.315 1.13-0.823 1.418zM28.739 22.238h-1.477v1.38h1.477v-1.38zM28.739 24.988h-1.477v1.38h1.477v-1.38zM28.739 27.74h-1.477v1.379h1.477v-1.38z"></path>
</symbol>
</defs>
</svg>
