<svg aria-hidden="true" style="position: absolute; width: 0; height: 0; overflow: hidden;" version="1.1" xmlns="http://www.w3.org/2000/svg" xmlns:xlink="http://www.w3.org/1999/xlink">
<defs>
<symbol id="icon-mobile-learning-1" viewBox="0 0 55 55">
<path d="M48.28 4h-23.073c-0.001 0-0.003 0-0.004 0-1.498 0-2.714 1.212-2.72 2.708v9.498l-17.14 7.154c-0.203 0.085-0.343 0.282-0.343 0.512 0 0.201 0.107 0.378 0.268 0.475l0.002 0.001 2.186 1.301v13.864c-1.126 0.26-1.953 1.252-1.957 2.439v1.336c0 0.306 0.25 0.555 0.559 0.555h3.914c0 0 0.001 0 0.001 0 0.307 0 0.556-0.248 0.557-0.555v-1.336c-0.005-1.186-0.832-2.178-1.941-2.435l-0.017-0.003v-13.2l1.729 1.028c-0.053 0.396-0.007-0.69-0.025 6.455 0 2.349 6.050 3.607 12.206 3.679v10.82c0 0.558 0.172 1.078 0.467 1.51 0.497 0.725 1.321 1.194 2.254 1.194 0.001 0 0.001 0 0.002 0h23.073c1.5 0 2.721-1.214 2.721-2.706 0 0.074-0.003-2.292 0-41.585 0-1.473-1.225-2.709-2.72-2.709zM9.415 41.952v0.781h-2.798v-0.781c0-0.77 0.626-1.395 1.395-1.395 0.001 0 0.002 0 0.003 0 0.771 0 1.397 0.624 1.4 1.395v0zM48.28 49.887h-23.073c-0.001 0-0.001 0-0.002 0-0.55 0-1.036-0.276-1.327-0.697l-0.003-0.005c-0.172-0.249-0.274-0.557-0.274-0.889 0-0.001 0-0.001 0-0.002v0-3.75h26.28v3.751c-0.010 0.878-0.721 1.586-1.599 1.592h-0.001zM49.88 43.433h-26.28v-5.953c3.005-0.034 12.213-0.692 12.213-3.682-0.003-4.489 0.008-6.31-0.014-6.463l5.013-2.986c0.163-0.099 0.27-0.275 0.27-0.476 0-0.229-0.139-0.426-0.337-0.511l-0.004-0.001-17.141-7.155v-4.636h26.28v31.863zM23.043 30.111c-3.097 0-9.058 0.398-11.648 2.080 0.016-5.144-0.18-4.81 0.457-5.245 1.609-1.179 6.21-2.001 11.19-2.001 2.173 0 11.656 0.594 11.656 2.59v4.656c-2.614-1.697-8.546-2.080-11.655-2.080zM23.6 6.71c0-0.88 0.72-1.596 1.605-1.596h23.073c0.885 0 1.602 0.726 1.602 1.596v3.75h-26.28v-3.75zM23.040 17.178l16.251 6.782-4.026 2.396c-2.141-2.11-9.223-2.52-12.224-2.52-3.006 0-10.088 0.41-12.224 2.52l-4.027-2.396 16.252-6.782zM11.393 33.798c0-0.899 4-2.575 11.648-2.575 7.652 0 11.655 1.676 11.655 2.575s-4.003 2.576-11.655 2.576c-7.648 0-11.648-1.677-11.648-2.576z"></path>
<path d="M36.742 45.38c-0.001 0-0.002 0-0.003 0-1.015 0-1.839 0.821-1.843 1.836v0c0 1.013 0.828 1.837 1.846 1.837 0.001 0 0.001 0 0.002 0 1.016 0 1.84-0.822 1.844-1.837v-0c-0.004-1.015-0.828-1.836-1.843-1.836-0.001 0-0.002 0-0.003 0h0zM36.742 47.943c0 0 0 0 0 0-0.402 0-0.728-0.325-0.73-0.727v-0c0-0.4 0.327-0.726 0.73-0.726s0.73 0.326 0.73 0.726c-0.002 0.402-0.328 0.727-0.73 0.727 0 0 0 0 0 0v0zM38.872 7.231h-4.259v1.11h4.259v-1.11z"></path>
</symbol>
</defs>
</svg>
